G75*
%MOIN*%
%OFA0B0*%
%FSLAX25Y25*%
%IPPOS*%
%LPD*%
%AMOC8*
5,1,8,0,0,1.08239X$1,22.5*
%
%ADD10C,0.01800*%
%ADD11C,0.00500*%
D10*
X0018000Y0022600D03*
X0017950Y0025950D03*
X0015500Y0028250D03*
X0017750Y0029250D03*
X0020250Y0028500D03*
X0023750Y0028250D03*
X0027150Y0027750D03*
X0029750Y0028250D03*
X0032000Y0028750D03*
X0035250Y0025500D03*
X0035250Y0022750D03*
X0037500Y0028750D03*
X0043500Y0022750D03*
X0046250Y0028750D03*
X0052250Y0028500D03*
X0054750Y0028500D03*
X0058250Y0028750D03*
X0060600Y0028750D03*
X0062950Y0028750D03*
X0066250Y0028250D03*
X0069250Y0025150D03*
X0069250Y0022750D03*
X0071500Y0028750D03*
X0074950Y0028750D03*
X0069150Y0034450D03*
X0071250Y0037250D03*
X0074950Y0037250D03*
X0074950Y0045750D03*
X0072550Y0045750D03*
X0070300Y0045250D03*
X0065950Y0045450D03*
X0062450Y0045400D03*
X0055250Y0045250D03*
X0050150Y0045500D03*
X0047800Y0045500D03*
X0045450Y0045500D03*
X0041000Y0045500D03*
X0037500Y0045750D03*
X0034750Y0038750D03*
X0036500Y0037250D03*
X0029000Y0037250D03*
X0026500Y0042250D03*
X0028000Y0045750D03*
X0020500Y0045750D03*
X0018250Y0048250D03*
X0015450Y0045250D03*
X0012050Y0045750D03*
X0012050Y0037250D03*
X0015450Y0036750D03*
X0017750Y0036750D03*
X0021200Y0036950D03*
X0023750Y0036750D03*
X0026500Y0031250D03*
X0026250Y0022550D03*
X0012050Y0028750D03*
X0015450Y0053750D03*
X0012050Y0054250D03*
X0015450Y0062250D03*
X0012050Y0062750D03*
X0015450Y0070750D03*
X0012050Y0071250D03*
X0012050Y0079750D03*
X0015450Y0079250D03*
X0020500Y0079750D03*
X0017750Y0085250D03*
X0026250Y0085250D03*
X0028750Y0079750D03*
X0029000Y0071000D03*
X0024000Y0071000D03*
X0020250Y0071000D03*
X0024000Y0062500D03*
X0020100Y0062250D03*
X0020000Y0054250D03*
X0023350Y0053950D03*
X0027650Y0054350D03*
X0029950Y0053750D03*
X0037000Y0054000D03*
X0039500Y0054000D03*
X0043750Y0056250D03*
X0045250Y0054000D03*
X0047600Y0054000D03*
X0049950Y0054050D03*
X0054400Y0054250D03*
X0062750Y0054050D03*
X0062500Y0062500D03*
X0069200Y0068450D03*
X0071550Y0070750D03*
X0074950Y0071250D03*
X0074950Y0079750D03*
X0072650Y0079750D03*
X0070350Y0079250D03*
X0068750Y0085250D03*
X0063150Y0079650D03*
X0059850Y0080150D03*
X0054950Y0079250D03*
X0051600Y0080000D03*
X0045750Y0079750D03*
X0044750Y0071300D03*
X0047050Y0070750D03*
X0053500Y0071250D03*
X0059950Y0071550D03*
X0063450Y0071000D03*
X0071550Y0062750D03*
X0074950Y0062750D03*
X0074950Y0054250D03*
X0071550Y0054250D03*
X0066450Y0036950D03*
X0062750Y0037000D03*
X0057096Y0037000D03*
X0054500Y0037000D03*
X0050500Y0037250D03*
X0046950Y0036800D03*
X0044700Y0037350D03*
X0052000Y0022750D03*
X0060750Y0022750D03*
X0047050Y0062250D03*
X0044800Y0062850D03*
X0037500Y0062750D03*
X0037250Y0071000D03*
X0037250Y0079750D03*
X0029000Y0062250D03*
X0054250Y0062750D03*
D11*
X0011400Y0027100D02*
X0011400Y0021900D01*
X0016367Y0021900D01*
X0016350Y0021917D01*
X0016350Y0023283D01*
X0017317Y0024250D01*
X0018683Y0024250D01*
X0019650Y0023283D01*
X0019650Y0021917D01*
X0019633Y0021900D01*
X0024600Y0021900D01*
X0024600Y0022786D01*
X0023336Y0024050D01*
X0022750Y0024636D01*
X0022750Y0026917D01*
X0022100Y0027567D01*
X0022100Y0028933D01*
X0023067Y0029900D01*
X0024433Y0029900D01*
X0024960Y0029374D01*
X0025086Y0029500D01*
X0025501Y0029915D01*
X0024850Y0030567D01*
X0024850Y0031933D01*
X0025817Y0032900D01*
X0027183Y0032900D01*
X0027833Y0032250D01*
X0048958Y0032250D01*
X0049330Y0032281D01*
X0049366Y0032250D01*
X0049414Y0032250D01*
X0049678Y0031987D01*
X0051848Y0030150D01*
X0052933Y0030150D01*
X0053500Y0029583D01*
X0054067Y0030150D01*
X0055433Y0030150D01*
X0056400Y0029183D01*
X0056400Y0027817D01*
X0055433Y0026850D01*
X0054067Y0026850D01*
X0053500Y0027417D01*
X0052933Y0026850D01*
X0051567Y0026850D01*
X0050600Y0027817D01*
X0050600Y0028586D01*
X0048634Y0030250D01*
X0047083Y0030250D01*
X0047900Y0029433D01*
X0047900Y0028067D01*
X0046933Y0027100D01*
X0045567Y0027100D01*
X0044600Y0028067D01*
X0044600Y0029433D01*
X0045417Y0030250D01*
X0038333Y0030250D01*
X0039150Y0029433D01*
X0039150Y0028067D01*
X0038183Y0027100D01*
X0036817Y0027100D01*
X0036167Y0027750D01*
X0035164Y0027750D01*
X0033250Y0025836D01*
X0032664Y0025250D01*
X0028664Y0025250D01*
X0030164Y0023750D01*
X0033917Y0023750D01*
X0034292Y0024125D01*
X0033600Y0024817D01*
X0033600Y0026183D01*
X0034567Y0027150D01*
X0035933Y0027150D01*
X0036900Y0026183D01*
X0036900Y0024817D01*
X0036208Y0024125D01*
X0036900Y0023433D01*
X0036900Y0022067D01*
X0036733Y0021900D01*
X0042017Y0021900D01*
X0041850Y0022067D01*
X0041850Y0023433D01*
X0042817Y0024400D01*
X0044183Y0024400D01*
X0045150Y0023433D01*
X0045150Y0022067D01*
X0044983Y0021900D01*
X0050517Y0021900D01*
X0050350Y0022067D01*
X0050350Y0023433D01*
X0051317Y0024400D01*
X0052683Y0024400D01*
X0053650Y0023433D01*
X0053650Y0022067D01*
X0053483Y0021900D01*
X0059267Y0021900D01*
X0059100Y0022067D01*
X0059100Y0023433D01*
X0060067Y0024400D01*
X0061433Y0024400D01*
X0062400Y0023433D01*
X0062400Y0022067D01*
X0062233Y0021900D01*
X0067767Y0021900D01*
X0067600Y0022067D01*
X0067600Y0023433D01*
X0068117Y0023950D01*
X0067600Y0024467D01*
X0067600Y0025833D01*
X0068567Y0026800D01*
X0069933Y0026800D01*
X0070900Y0025833D01*
X0070900Y0024467D01*
X0070383Y0023950D01*
X0070900Y0023433D01*
X0070900Y0022067D01*
X0070733Y0021900D01*
X0075650Y0021900D01*
X0075650Y0027117D01*
X0075633Y0027100D01*
X0074267Y0027100D01*
X0073300Y0028067D01*
X0073300Y0029433D01*
X0074267Y0030400D01*
X0075633Y0030400D01*
X0075650Y0030383D01*
X0075650Y0035617D01*
X0075633Y0035600D01*
X0074267Y0035600D01*
X0073300Y0036567D01*
X0073300Y0037933D01*
X0074267Y0038900D01*
X0075633Y0038900D01*
X0075650Y0038883D01*
X0075650Y0044117D01*
X0075633Y0044100D01*
X0074267Y0044100D01*
X0073750Y0044617D01*
X0073233Y0044100D01*
X0071867Y0044100D01*
X0071675Y0044292D01*
X0070983Y0043600D01*
X0070064Y0043600D01*
X0069300Y0042836D01*
X0068714Y0042250D01*
X0064186Y0042250D01*
X0062686Y0043750D01*
X0061767Y0043750D01*
X0060800Y0044717D01*
X0060800Y0046083D01*
X0061767Y0047050D01*
X0063133Y0047050D01*
X0064100Y0046083D01*
X0064100Y0045164D01*
X0064300Y0044964D01*
X0064300Y0045786D01*
X0064250Y0045836D01*
X0064250Y0045874D01*
X0064225Y0045903D01*
X0064250Y0046283D01*
X0064250Y0053217D01*
X0063433Y0052400D01*
X0062067Y0052400D01*
X0061217Y0053250D01*
X0055733Y0053250D01*
X0055083Y0052600D01*
X0053717Y0052600D01*
X0052750Y0053567D01*
X0052750Y0054933D01*
X0053717Y0055900D01*
X0055083Y0055900D01*
X0055733Y0055250D01*
X0061617Y0055250D01*
X0062067Y0055700D01*
X0063433Y0055700D01*
X0063883Y0055250D01*
X0070217Y0055250D01*
X0070867Y0055900D01*
X0072233Y0055900D01*
X0073200Y0054933D01*
X0073200Y0053567D01*
X0072233Y0052600D01*
X0070867Y0052600D01*
X0070217Y0053250D01*
X0066250Y0053250D01*
X0066250Y0047100D01*
X0066633Y0047100D01*
X0067600Y0046133D01*
X0067600Y0044767D01*
X0067083Y0044250D01*
X0067886Y0044250D01*
X0068650Y0045014D01*
X0068650Y0045933D01*
X0069617Y0046900D01*
X0070983Y0046900D01*
X0071175Y0046708D01*
X0071867Y0047400D01*
X0073233Y0047400D01*
X0073750Y0046883D01*
X0074267Y0047400D01*
X0075633Y0047400D01*
X0075650Y0047383D01*
X0075650Y0052617D01*
X0075633Y0052600D01*
X0074267Y0052600D01*
X0073300Y0053567D01*
X0073300Y0054933D01*
X0074267Y0055900D01*
X0075633Y0055900D01*
X0075650Y0055883D01*
X0075650Y0061117D01*
X0075633Y0061100D01*
X0074267Y0061100D01*
X0073300Y0062067D01*
X0073300Y0063433D01*
X0074267Y0064400D01*
X0075633Y0064400D01*
X0075650Y0064383D01*
X0075650Y0069617D01*
X0075633Y0069600D01*
X0074267Y0069600D01*
X0073300Y0070567D01*
X0073300Y0071933D01*
X0074267Y0072900D01*
X0075633Y0072900D01*
X0075650Y0072883D01*
X0075650Y0078117D01*
X0075633Y0078100D01*
X0074267Y0078100D01*
X0073800Y0078567D01*
X0073333Y0078100D01*
X0071967Y0078100D01*
X0071750Y0078317D01*
X0071033Y0077600D01*
X0069667Y0077600D01*
X0068700Y0078567D01*
X0068700Y0079933D01*
X0069667Y0080900D01*
X0071033Y0080900D01*
X0071250Y0080683D01*
X0071967Y0081400D01*
X0073333Y0081400D01*
X0073800Y0080933D01*
X0074267Y0081400D01*
X0075633Y0081400D01*
X0075650Y0081383D01*
X0075650Y0086150D01*
X0070183Y0086150D01*
X0070400Y0085933D01*
X0070400Y0084567D01*
X0069433Y0083600D01*
X0068067Y0083600D01*
X0067100Y0084567D01*
X0067100Y0085933D01*
X0067317Y0086150D01*
X0027683Y0086150D01*
X0027900Y0085933D01*
X0027900Y0084567D01*
X0026933Y0083600D01*
X0025567Y0083600D01*
X0024600Y0084567D01*
X0024600Y0085933D01*
X0024817Y0086150D01*
X0019183Y0086150D01*
X0019400Y0085933D01*
X0019400Y0084567D01*
X0018433Y0083600D01*
X0017067Y0083600D01*
X0016100Y0084567D01*
X0016100Y0085933D01*
X0016317Y0086150D01*
X0011400Y0086150D01*
X0011400Y0081400D01*
X0012733Y0081400D01*
X0013700Y0080433D01*
X0013700Y0079067D01*
X0012733Y0078100D01*
X0011400Y0078100D01*
X0011400Y0072900D01*
X0012286Y0072900D01*
X0012550Y0073164D01*
X0013136Y0073750D01*
X0018914Y0073750D01*
X0020014Y0072650D01*
X0020933Y0072650D01*
X0021900Y0071683D01*
X0021900Y0070317D01*
X0020933Y0069350D01*
X0019567Y0069350D01*
X0018600Y0070317D01*
X0018600Y0071236D01*
X0018086Y0071750D01*
X0016783Y0071750D01*
X0017100Y0071433D01*
X0017100Y0070067D01*
X0016133Y0069100D01*
X0014767Y0069100D01*
X0013800Y0070067D01*
X0013800Y0071433D01*
X0014117Y0071750D01*
X0013964Y0071750D01*
X0013700Y0071486D01*
X0013700Y0070567D01*
X0012733Y0069600D01*
X0011400Y0069600D01*
X0011400Y0064400D01*
X0012733Y0064400D01*
X0013700Y0063433D01*
X0013700Y0062067D01*
X0012733Y0061100D01*
X0011400Y0061100D01*
X0011400Y0055900D01*
X0012733Y0055900D01*
X0013110Y0055524D01*
X0013336Y0055750D01*
X0014250Y0056664D01*
X0014836Y0057250D01*
X0017336Y0057250D01*
X0020686Y0060600D01*
X0019417Y0060600D01*
X0018450Y0061567D01*
X0018450Y0062933D01*
X0019417Y0063900D01*
X0020336Y0063900D01*
X0021100Y0064664D01*
X0021686Y0065250D01*
X0027414Y0065250D01*
X0028764Y0063900D01*
X0029683Y0063900D01*
X0030650Y0062933D01*
X0030650Y0061567D01*
X0029683Y0060600D01*
X0028317Y0060600D01*
X0027350Y0061567D01*
X0027350Y0062486D01*
X0026586Y0063250D01*
X0025583Y0063250D01*
X0025650Y0063183D01*
X0025650Y0061817D01*
X0024683Y0060850D01*
X0023764Y0060850D01*
X0018164Y0055250D01*
X0016283Y0055250D01*
X0017100Y0054433D01*
X0017100Y0053067D01*
X0016133Y0052100D01*
X0014767Y0052100D01*
X0014750Y0052117D01*
X0014750Y0046883D01*
X0014767Y0046900D01*
X0016133Y0046900D01*
X0017100Y0045933D01*
X0017100Y0044567D01*
X0016133Y0043600D01*
X0014767Y0043600D01*
X0014290Y0044076D01*
X0013050Y0042836D01*
X0013050Y0038583D01*
X0013700Y0037933D01*
X0013700Y0036567D01*
X0012733Y0035600D01*
X0011400Y0035600D01*
X0011400Y0030400D01*
X0012733Y0030400D01*
X0013700Y0029433D01*
X0013700Y0028067D01*
X0012733Y0027100D01*
X0011400Y0027100D01*
X0011400Y0026988D02*
X0014429Y0026988D01*
X0014817Y0026600D02*
X0013850Y0027567D01*
X0013850Y0028933D01*
X0014817Y0029900D01*
X0016100Y0029900D01*
X0016100Y0029933D01*
X0017067Y0030900D01*
X0017986Y0030900D01*
X0022250Y0035164D01*
X0022626Y0035540D01*
X0022375Y0035792D01*
X0021883Y0035300D01*
X0020517Y0035300D01*
X0019550Y0036267D01*
X0019550Y0037633D01*
X0020517Y0038600D01*
X0021883Y0038600D01*
X0022575Y0037908D01*
X0023067Y0038400D01*
X0024433Y0038400D01*
X0025400Y0037433D01*
X0025400Y0036067D01*
X0025083Y0035750D01*
X0027664Y0035750D01*
X0028664Y0034750D01*
X0056014Y0034750D01*
X0060364Y0030400D01*
X0061283Y0030400D01*
X0061775Y0029908D01*
X0062267Y0030400D01*
X0063633Y0030400D01*
X0064600Y0029433D01*
X0064600Y0028067D01*
X0063633Y0027100D01*
X0062267Y0027100D01*
X0061775Y0027592D01*
X0061283Y0027100D01*
X0059917Y0027100D01*
X0059425Y0027592D01*
X0058933Y0027100D01*
X0057567Y0027100D01*
X0056600Y0028067D01*
X0056600Y0029433D01*
X0057551Y0030385D01*
X0055186Y0032750D01*
X0027836Y0032750D01*
X0027250Y0033336D01*
X0026836Y0033750D01*
X0023664Y0033750D01*
X0020064Y0030150D01*
X0020933Y0030150D01*
X0021900Y0029183D01*
X0021900Y0027817D01*
X0020933Y0026850D01*
X0019567Y0026850D01*
X0018625Y0027792D01*
X0018433Y0027600D01*
X0017150Y0027600D01*
X0017150Y0027567D01*
X0016183Y0026600D01*
X0014817Y0026600D01*
X0013930Y0027487D02*
X0013120Y0027487D01*
X0013618Y0027985D02*
X0013850Y0027985D01*
X0013850Y0028484D02*
X0013700Y0028484D01*
X0013700Y0028982D02*
X0013899Y0028982D01*
X0013653Y0029481D02*
X0014397Y0029481D01*
X0013154Y0029979D02*
X0016146Y0029979D01*
X0016644Y0030478D02*
X0011400Y0030478D01*
X0011400Y0030976D02*
X0018062Y0030976D01*
X0018560Y0031475D02*
X0011400Y0031475D01*
X0011400Y0031973D02*
X0019059Y0031973D01*
X0019557Y0032472D02*
X0011400Y0032472D01*
X0011400Y0032970D02*
X0020056Y0032970D01*
X0020554Y0033469D02*
X0011400Y0033469D01*
X0011400Y0033967D02*
X0021053Y0033967D01*
X0021551Y0034466D02*
X0011400Y0034466D01*
X0011400Y0034964D02*
X0022050Y0034964D01*
X0022046Y0035463D02*
X0022548Y0035463D01*
X0023250Y0034750D02*
X0027250Y0034750D01*
X0028250Y0033750D01*
X0055600Y0033750D01*
X0060600Y0028750D01*
X0059530Y0027487D02*
X0059320Y0027487D01*
X0057180Y0027487D02*
X0056070Y0027487D01*
X0056400Y0027985D02*
X0056682Y0027985D01*
X0056600Y0028484D02*
X0056400Y0028484D01*
X0056400Y0028982D02*
X0056600Y0028982D01*
X0056647Y0029481D02*
X0056103Y0029481D01*
X0055604Y0029979D02*
X0057146Y0029979D01*
X0057458Y0030478D02*
X0051461Y0030478D01*
X0050872Y0030976D02*
X0056960Y0030976D01*
X0056461Y0031475D02*
X0050283Y0031475D01*
X0049694Y0031973D02*
X0055963Y0031973D01*
X0055464Y0032472D02*
X0027612Y0032472D01*
X0027616Y0032970D02*
X0022884Y0032970D01*
X0022386Y0032472D02*
X0025388Y0032472D01*
X0024890Y0031973D02*
X0021887Y0031973D01*
X0021389Y0031475D02*
X0024850Y0031475D01*
X0024850Y0030976D02*
X0020890Y0030976D01*
X0020392Y0030478D02*
X0024939Y0030478D01*
X0025437Y0029979D02*
X0021104Y0029979D01*
X0021603Y0029481D02*
X0022647Y0029481D01*
X0022149Y0028982D02*
X0021900Y0028982D01*
X0021900Y0028484D02*
X0022100Y0028484D01*
X0022100Y0027985D02*
X0021900Y0027985D01*
X0022180Y0027487D02*
X0021570Y0027487D01*
X0021071Y0026988D02*
X0022679Y0026988D01*
X0022750Y0026489D02*
X0019600Y0026489D01*
X0019600Y0026633D02*
X0018633Y0027600D01*
X0017267Y0027600D01*
X0016300Y0026633D01*
X0016300Y0025267D01*
X0017267Y0024300D01*
X0018633Y0024300D01*
X0019600Y0025267D01*
X0019600Y0026633D01*
X0019429Y0026988D02*
X0019245Y0026988D01*
X0018930Y0027487D02*
X0018747Y0027487D01*
X0017153Y0027487D02*
X0017070Y0027487D01*
X0016655Y0026988D02*
X0016571Y0026988D01*
X0016300Y0026489D02*
X0011400Y0026489D01*
X0011400Y0025991D02*
X0016300Y0025991D01*
X0016300Y0025492D02*
X0011400Y0025492D01*
X0011400Y0024994D02*
X0016573Y0024994D01*
X0017071Y0024495D02*
X0011400Y0024495D01*
X0011400Y0023997D02*
X0017063Y0023997D01*
X0016565Y0023498D02*
X0011400Y0023498D01*
X0011400Y0023000D02*
X0016350Y0023000D01*
X0016350Y0022501D02*
X0011400Y0022501D01*
X0011400Y0022003D02*
X0016350Y0022003D01*
X0018937Y0023997D02*
X0023389Y0023997D01*
X0023887Y0023498D02*
X0019435Y0023498D01*
X0019650Y0023000D02*
X0024386Y0023000D01*
X0024600Y0022501D02*
X0019650Y0022501D01*
X0019650Y0022003D02*
X0024600Y0022003D01*
X0026250Y0022550D02*
X0023750Y0025050D01*
X0023750Y0028250D01*
X0024853Y0029481D02*
X0025066Y0029481D01*
X0025500Y0028500D02*
X0025500Y0027000D01*
X0029750Y0022750D01*
X0035250Y0022750D01*
X0034163Y0023997D02*
X0029917Y0023997D01*
X0029419Y0024495D02*
X0033921Y0024495D01*
X0033600Y0024994D02*
X0028920Y0024994D01*
X0028650Y0026250D02*
X0027150Y0027750D01*
X0025500Y0028500D02*
X0026500Y0029500D01*
X0028500Y0029500D01*
X0029750Y0028250D01*
X0028650Y0026250D02*
X0032250Y0026250D01*
X0034750Y0028750D01*
X0037500Y0028750D01*
X0038604Y0029979D02*
X0045146Y0029979D01*
X0044647Y0029481D02*
X0039103Y0029481D01*
X0039150Y0028982D02*
X0044600Y0028982D01*
X0044600Y0028484D02*
X0039150Y0028484D01*
X0039068Y0027985D02*
X0044682Y0027985D01*
X0045180Y0027487D02*
X0038570Y0027487D01*
X0036430Y0027487D02*
X0034901Y0027487D01*
X0034405Y0026988D02*
X0034402Y0026988D01*
X0033906Y0026489D02*
X0033904Y0026489D01*
X0033600Y0025991D02*
X0033405Y0025991D01*
X0033600Y0025492D02*
X0032907Y0025492D01*
X0036095Y0026988D02*
X0051429Y0026988D01*
X0050930Y0027487D02*
X0047320Y0027487D01*
X0047818Y0027985D02*
X0050600Y0027985D01*
X0050600Y0028484D02*
X0047900Y0028484D01*
X0047900Y0028982D02*
X0050132Y0028982D01*
X0049543Y0029481D02*
X0047853Y0029481D01*
X0047354Y0029979D02*
X0048954Y0029979D01*
X0049000Y0031250D02*
X0026500Y0031250D01*
X0027117Y0033469D02*
X0023383Y0033469D01*
X0023250Y0034750D02*
X0017750Y0029250D01*
X0019600Y0025991D02*
X0022750Y0025991D01*
X0022750Y0025492D02*
X0019600Y0025492D01*
X0019327Y0024994D02*
X0022750Y0024994D01*
X0022890Y0024495D02*
X0018829Y0024495D01*
X0018433Y0035100D02*
X0017067Y0035100D01*
X0016600Y0035567D01*
X0016133Y0035100D01*
X0014767Y0035100D01*
X0013800Y0036067D01*
X0013800Y0037433D01*
X0014767Y0038400D01*
X0016133Y0038400D01*
X0016600Y0037933D01*
X0017067Y0038400D01*
X0018433Y0038400D01*
X0019400Y0037433D01*
X0019400Y0036067D01*
X0018433Y0035100D01*
X0018796Y0035463D02*
X0020354Y0035463D01*
X0019855Y0035961D02*
X0019295Y0035961D01*
X0019400Y0036460D02*
X0019550Y0036460D01*
X0019550Y0036958D02*
X0019400Y0036958D01*
X0019377Y0037457D02*
X0019550Y0037457D01*
X0019872Y0037955D02*
X0018878Y0037955D01*
X0020370Y0038454D02*
X0013180Y0038454D01*
X0013050Y0038952D02*
X0033100Y0038952D01*
X0033100Y0039433D02*
X0033100Y0038067D01*
X0034067Y0037100D01*
X0034850Y0037100D01*
X0034850Y0036567D01*
X0035817Y0035600D01*
X0037183Y0035600D01*
X0038150Y0036567D01*
X0038150Y0037933D01*
X0037183Y0038900D01*
X0036400Y0038900D01*
X0036400Y0039433D01*
X0035433Y0040400D01*
X0034067Y0040400D01*
X0033100Y0039433D01*
X0033117Y0039451D02*
X0013050Y0039451D01*
X0013050Y0039949D02*
X0033616Y0039949D01*
X0033100Y0038454D02*
X0030130Y0038454D01*
X0029683Y0038900D02*
X0030650Y0037933D01*
X0030650Y0036567D01*
X0029683Y0035600D01*
X0028317Y0035600D01*
X0027350Y0036567D01*
X0027350Y0037933D01*
X0028317Y0038900D01*
X0029683Y0038900D01*
X0030628Y0037955D02*
X0033211Y0037955D01*
X0033710Y0037457D02*
X0030650Y0037457D01*
X0030650Y0036958D02*
X0034850Y0036958D01*
X0034957Y0036460D02*
X0030543Y0036460D01*
X0030045Y0035961D02*
X0035455Y0035961D01*
X0037545Y0035961D02*
X0043755Y0035961D01*
X0044017Y0035700D02*
X0045383Y0035700D01*
X0045550Y0035867D01*
X0046267Y0035150D01*
X0047633Y0035150D01*
X0048600Y0036117D01*
X0048600Y0037483D01*
X0047633Y0038450D01*
X0046267Y0038450D01*
X0046100Y0038283D01*
X0045383Y0039000D01*
X0044017Y0039000D01*
X0043050Y0038033D01*
X0043050Y0036667D01*
X0044017Y0035700D01*
X0043257Y0036460D02*
X0038043Y0036460D01*
X0038150Y0036958D02*
X0043050Y0036958D01*
X0043050Y0037457D02*
X0038150Y0037457D01*
X0038128Y0037955D02*
X0043050Y0037955D01*
X0043470Y0038454D02*
X0037630Y0038454D01*
X0036400Y0038952D02*
X0043969Y0038952D01*
X0045431Y0038952D02*
X0063034Y0038952D01*
X0063336Y0038650D02*
X0062067Y0038650D01*
X0061100Y0037683D01*
X0061100Y0036317D01*
X0062067Y0035350D01*
X0062986Y0035350D01*
X0063500Y0034836D01*
X0064086Y0034250D01*
X0067500Y0034250D01*
X0067500Y0033767D01*
X0068467Y0032800D01*
X0069833Y0032800D01*
X0070800Y0033767D01*
X0070800Y0035133D01*
X0069833Y0036100D01*
X0069514Y0036100D01*
X0069664Y0036250D01*
X0069917Y0036250D01*
X0070567Y0035600D01*
X0071933Y0035600D01*
X0072900Y0036567D01*
X0072900Y0037933D01*
X0071933Y0038900D01*
X0070567Y0038900D01*
X0069917Y0038250D01*
X0068836Y0038250D01*
X0068250Y0037664D01*
X0068100Y0037514D01*
X0068100Y0037633D01*
X0067133Y0038600D01*
X0066214Y0038600D01*
X0061150Y0043664D01*
X0060564Y0044250D01*
X0056583Y0044250D01*
X0056900Y0044567D01*
X0056900Y0045933D01*
X0055933Y0046900D01*
X0054567Y0046900D01*
X0053600Y0045933D01*
X0053600Y0044567D01*
X0053917Y0044250D01*
X0052814Y0044250D01*
X0051800Y0045264D01*
X0051800Y0046183D01*
X0050833Y0047150D01*
X0049467Y0047150D01*
X0048975Y0046658D01*
X0048483Y0047150D01*
X0047117Y0047150D01*
X0046625Y0046658D01*
X0046133Y0047150D01*
X0044767Y0047150D01*
X0043800Y0046183D01*
X0043800Y0044817D01*
X0044767Y0043850D01*
X0046133Y0043850D01*
X0046625Y0044342D01*
X0047117Y0043850D01*
X0048483Y0043850D01*
X0048975Y0044342D01*
X0049467Y0043850D01*
X0050386Y0043850D01*
X0051986Y0042250D01*
X0059736Y0042250D01*
X0063336Y0038650D01*
X0062535Y0039451D02*
X0036383Y0039451D01*
X0035884Y0039949D02*
X0062036Y0039949D01*
X0061538Y0040448D02*
X0013050Y0040448D01*
X0013050Y0040946D02*
X0025470Y0040946D01*
X0025817Y0040600D02*
X0027183Y0040600D01*
X0028150Y0041567D01*
X0028150Y0042933D01*
X0027183Y0043900D01*
X0025817Y0043900D01*
X0024850Y0042933D01*
X0024850Y0041567D01*
X0025817Y0040600D01*
X0024972Y0041445D02*
X0013050Y0041445D01*
X0013050Y0041943D02*
X0024850Y0041943D01*
X0024850Y0042442D02*
X0013050Y0042442D01*
X0013155Y0042940D02*
X0024857Y0042940D01*
X0025355Y0043439D02*
X0013653Y0043439D01*
X0014152Y0043937D02*
X0014429Y0043937D01*
X0013750Y0044950D02*
X0012050Y0043250D01*
X0012050Y0037250D01*
X0013095Y0035961D02*
X0013905Y0035961D01*
X0013800Y0036460D02*
X0013593Y0036460D01*
X0013700Y0036958D02*
X0013800Y0036958D01*
X0013823Y0037457D02*
X0013700Y0037457D01*
X0013678Y0037955D02*
X0014322Y0037955D01*
X0014404Y0035463D02*
X0011400Y0035463D01*
X0016496Y0035463D02*
X0016704Y0035463D01*
X0016622Y0037955D02*
X0016578Y0037955D01*
X0022030Y0038454D02*
X0027870Y0038454D01*
X0027372Y0037955D02*
X0024878Y0037955D01*
X0025377Y0037457D02*
X0027350Y0037457D01*
X0027350Y0036958D02*
X0025400Y0036958D01*
X0025400Y0036460D02*
X0027457Y0036460D01*
X0027955Y0035961D02*
X0025295Y0035961D01*
X0027952Y0035463D02*
X0045954Y0035463D01*
X0047946Y0035463D02*
X0053704Y0035463D01*
X0053817Y0035350D02*
X0055183Y0035350D01*
X0055798Y0035965D01*
X0056413Y0035350D01*
X0057780Y0035350D01*
X0058746Y0036317D01*
X0058746Y0037683D01*
X0057780Y0038650D01*
X0056413Y0038650D01*
X0055798Y0038035D01*
X0055183Y0038650D01*
X0053817Y0038650D01*
X0052850Y0037683D01*
X0052850Y0036317D01*
X0053817Y0035350D01*
X0053205Y0035961D02*
X0051545Y0035961D01*
X0051183Y0035600D02*
X0052150Y0036567D01*
X0052150Y0037933D01*
X0051183Y0038900D01*
X0049817Y0038900D01*
X0048850Y0037933D01*
X0048850Y0036567D01*
X0049817Y0035600D01*
X0051183Y0035600D01*
X0052043Y0036460D02*
X0052850Y0036460D01*
X0052850Y0036958D02*
X0052150Y0036958D01*
X0052150Y0037457D02*
X0052850Y0037457D01*
X0053122Y0037955D02*
X0052128Y0037955D01*
X0051630Y0038454D02*
X0053620Y0038454D01*
X0055380Y0038454D02*
X0056217Y0038454D01*
X0057976Y0038454D02*
X0061870Y0038454D01*
X0061372Y0037955D02*
X0058475Y0037955D01*
X0058746Y0037457D02*
X0061100Y0037457D01*
X0061100Y0036958D02*
X0058746Y0036958D01*
X0058746Y0036460D02*
X0061100Y0036460D01*
X0061455Y0035961D02*
X0058391Y0035961D01*
X0057893Y0035463D02*
X0061954Y0035463D01*
X0062750Y0037000D02*
X0064500Y0035250D01*
X0067250Y0035250D01*
X0069250Y0037250D01*
X0071250Y0037250D01*
X0072380Y0038454D02*
X0073820Y0038454D01*
X0073322Y0037955D02*
X0072878Y0037955D01*
X0072900Y0037457D02*
X0073300Y0037457D01*
X0073300Y0036958D02*
X0072900Y0036958D01*
X0072793Y0036460D02*
X0073407Y0036460D01*
X0073905Y0035961D02*
X0072295Y0035961D01*
X0070800Y0034964D02*
X0075650Y0034964D01*
X0075650Y0034466D02*
X0070800Y0034466D01*
X0070800Y0033967D02*
X0075650Y0033967D01*
X0075650Y0033469D02*
X0070502Y0033469D01*
X0070004Y0032970D02*
X0075650Y0032970D01*
X0075650Y0032472D02*
X0058293Y0032472D01*
X0058791Y0031973D02*
X0075650Y0031973D01*
X0075650Y0031475D02*
X0059290Y0031475D01*
X0059788Y0030976D02*
X0075650Y0030976D01*
X0075650Y0030478D02*
X0060287Y0030478D01*
X0061704Y0029979D02*
X0061846Y0029979D01*
X0064054Y0029979D02*
X0070396Y0029979D01*
X0070817Y0030400D02*
X0069850Y0029433D01*
X0069850Y0028067D01*
X0070817Y0027100D01*
X0072183Y0027100D01*
X0073150Y0028067D01*
X0073150Y0029433D01*
X0072183Y0030400D01*
X0070817Y0030400D01*
X0069897Y0029481D02*
X0067353Y0029481D01*
X0066933Y0029900D02*
X0067900Y0028933D01*
X0067900Y0027567D01*
X0066933Y0026600D01*
X0065567Y0026600D01*
X0064600Y0027567D01*
X0064600Y0028933D01*
X0065567Y0029900D01*
X0066933Y0029900D01*
X0067851Y0028982D02*
X0069850Y0028982D01*
X0069850Y0028484D02*
X0067900Y0028484D01*
X0067900Y0027985D02*
X0069932Y0027985D01*
X0070430Y0027487D02*
X0067820Y0027487D01*
X0067321Y0026988D02*
X0075650Y0026988D01*
X0075650Y0026489D02*
X0070244Y0026489D01*
X0070742Y0025991D02*
X0075650Y0025991D01*
X0075650Y0025492D02*
X0070900Y0025492D01*
X0070900Y0024994D02*
X0075650Y0024994D01*
X0075650Y0024495D02*
X0070900Y0024495D01*
X0070430Y0023997D02*
X0075650Y0023997D01*
X0075650Y0023498D02*
X0070835Y0023498D01*
X0070900Y0023000D02*
X0075650Y0023000D01*
X0075650Y0022501D02*
X0070900Y0022501D01*
X0070836Y0022003D02*
X0075650Y0022003D01*
X0073880Y0027487D02*
X0072570Y0027487D01*
X0073068Y0027985D02*
X0073382Y0027985D01*
X0073300Y0028484D02*
X0073150Y0028484D01*
X0073150Y0028982D02*
X0073300Y0028982D01*
X0073347Y0029481D02*
X0073103Y0029481D01*
X0072604Y0029979D02*
X0073846Y0029979D01*
X0075650Y0035463D02*
X0070471Y0035463D01*
X0070205Y0035961D02*
X0069972Y0035961D01*
X0068541Y0037955D02*
X0067778Y0037955D01*
X0067280Y0038454D02*
X0070120Y0038454D01*
X0066450Y0036950D02*
X0060150Y0043250D01*
X0052400Y0043250D01*
X0050150Y0045500D01*
X0051554Y0046430D02*
X0054096Y0046430D01*
X0053600Y0045931D02*
X0051800Y0045931D01*
X0051800Y0045433D02*
X0053600Y0045433D01*
X0053600Y0044934D02*
X0052130Y0044934D01*
X0052628Y0044436D02*
X0053731Y0044436D01*
X0051794Y0042442D02*
X0028150Y0042442D01*
X0028143Y0042940D02*
X0051295Y0042940D01*
X0050797Y0043439D02*
X0027645Y0043439D01*
X0027317Y0044100D02*
X0028683Y0044100D01*
X0029333Y0044750D01*
X0036167Y0044750D01*
X0036817Y0044100D01*
X0038183Y0044100D01*
X0039150Y0045067D01*
X0039150Y0046433D01*
X0038183Y0047400D01*
X0036817Y0047400D01*
X0036167Y0046750D01*
X0029333Y0046750D01*
X0028683Y0047400D01*
X0027317Y0047400D01*
X0026350Y0046433D01*
X0026350Y0045067D01*
X0027317Y0044100D01*
X0026981Y0044436D02*
X0021519Y0044436D01*
X0021183Y0044100D02*
X0022150Y0045067D01*
X0022150Y0046433D01*
X0021183Y0047400D01*
X0019817Y0047400D01*
X0018850Y0046433D01*
X0018850Y0045067D01*
X0019817Y0044100D01*
X0021183Y0044100D01*
X0022018Y0044934D02*
X0026482Y0044934D01*
X0026350Y0045433D02*
X0022150Y0045433D01*
X0022150Y0045931D02*
X0026350Y0045931D01*
X0026350Y0046430D02*
X0022150Y0046430D01*
X0021655Y0046928D02*
X0026845Y0046928D01*
X0028000Y0045750D02*
X0037500Y0045750D01*
X0038519Y0044436D02*
X0044181Y0044436D01*
X0043800Y0044934D02*
X0039018Y0044934D01*
X0039150Y0045433D02*
X0043800Y0045433D01*
X0043800Y0045931D02*
X0039150Y0045931D01*
X0039150Y0046430D02*
X0044046Y0046430D01*
X0044545Y0046928D02*
X0038655Y0046928D01*
X0036345Y0046928D02*
X0029155Y0046928D01*
X0029019Y0044436D02*
X0036481Y0044436D01*
X0041000Y0045500D02*
X0041250Y0045250D01*
X0042250Y0045250D01*
X0044679Y0043937D02*
X0016471Y0043937D01*
X0016969Y0044436D02*
X0019481Y0044436D01*
X0018982Y0044934D02*
X0017100Y0044934D01*
X0017100Y0045433D02*
X0018850Y0045433D01*
X0018850Y0045931D02*
X0017100Y0045931D01*
X0016604Y0046430D02*
X0018850Y0046430D01*
X0018933Y0046600D02*
X0019900Y0047567D01*
X0019900Y0048933D01*
X0018933Y0049900D01*
X0017567Y0049900D01*
X0016600Y0048933D01*
X0016600Y0047567D01*
X0017567Y0046600D01*
X0018933Y0046600D01*
X0019262Y0046928D02*
X0019345Y0046928D01*
X0019760Y0047427D02*
X0064250Y0047427D01*
X0064250Y0047925D02*
X0019900Y0047925D01*
X0019900Y0048424D02*
X0064250Y0048424D01*
X0064250Y0048922D02*
X0019900Y0048922D01*
X0019412Y0049421D02*
X0064250Y0049421D01*
X0064250Y0049920D02*
X0014750Y0049920D01*
X0014750Y0050418D02*
X0064250Y0050418D01*
X0064250Y0050917D02*
X0014750Y0050917D01*
X0014750Y0051415D02*
X0064250Y0051415D01*
X0064250Y0051914D02*
X0014750Y0051914D01*
X0016446Y0052412D02*
X0022554Y0052412D01*
X0022667Y0052300D02*
X0021700Y0053267D01*
X0021700Y0054536D01*
X0021650Y0054486D01*
X0021650Y0053567D01*
X0020683Y0052600D01*
X0019317Y0052600D01*
X0018350Y0053567D01*
X0018350Y0054933D01*
X0019317Y0055900D01*
X0020236Y0055900D01*
X0021086Y0056750D01*
X0026664Y0056750D01*
X0027250Y0056164D01*
X0027414Y0056000D01*
X0028333Y0056000D01*
X0029300Y0055033D01*
X0029300Y0053667D01*
X0028333Y0052700D01*
X0026967Y0052700D01*
X0026000Y0053667D01*
X0026000Y0054586D01*
X0025836Y0054750D01*
X0024883Y0054750D01*
X0025000Y0054633D01*
X0025000Y0053267D01*
X0024033Y0052300D01*
X0022667Y0052300D01*
X0022056Y0052911D02*
X0020994Y0052911D01*
X0021493Y0053409D02*
X0021700Y0053409D01*
X0021700Y0053908D02*
X0021650Y0053908D01*
X0021650Y0054406D02*
X0021700Y0054406D01*
X0021500Y0055750D02*
X0020000Y0054250D01*
X0019006Y0052911D02*
X0016944Y0052911D01*
X0017100Y0053409D02*
X0018507Y0053409D01*
X0018350Y0053908D02*
X0017100Y0053908D01*
X0017100Y0054406D02*
X0018350Y0054406D01*
X0018350Y0054905D02*
X0016629Y0054905D01*
X0017750Y0056250D02*
X0024000Y0062500D01*
X0025219Y0061385D02*
X0027531Y0061385D01*
X0027350Y0061884D02*
X0025650Y0061884D01*
X0025650Y0062382D02*
X0027350Y0062382D01*
X0026955Y0062881D02*
X0025650Y0062881D01*
X0027000Y0064250D02*
X0029000Y0062250D01*
X0029000Y0062000D01*
X0029970Y0060887D02*
X0046080Y0060887D01*
X0046367Y0060600D02*
X0045625Y0061342D01*
X0045483Y0061200D01*
X0044117Y0061200D01*
X0043150Y0062167D01*
X0043150Y0063533D01*
X0044117Y0064500D01*
X0045483Y0064500D01*
X0046225Y0063758D01*
X0046367Y0063900D01*
X0047733Y0063900D01*
X0048700Y0062933D01*
X0048700Y0061567D01*
X0047733Y0060600D01*
X0046367Y0060600D01*
X0048020Y0060887D02*
X0061780Y0060887D01*
X0061817Y0060850D02*
X0063183Y0060850D01*
X0064150Y0061817D01*
X0064150Y0063183D01*
X0063183Y0064150D01*
X0061817Y0064150D01*
X0060850Y0063183D01*
X0060850Y0061817D01*
X0061817Y0060850D01*
X0061281Y0061385D02*
X0055219Y0061385D01*
X0054933Y0061100D02*
X0055900Y0062067D01*
X0055900Y0063433D01*
X0054933Y0064400D01*
X0053567Y0064400D01*
X0052600Y0063433D01*
X0052600Y0062067D01*
X0053567Y0061100D01*
X0054933Y0061100D01*
X0055717Y0061884D02*
X0060850Y0061884D01*
X0060850Y0062382D02*
X0055900Y0062382D01*
X0055900Y0062881D02*
X0060850Y0062881D01*
X0061046Y0063379D02*
X0055900Y0063379D01*
X0055456Y0063878D02*
X0061544Y0063878D01*
X0063456Y0063878D02*
X0070344Y0063878D01*
X0069900Y0063433D02*
X0069900Y0062067D01*
X0070867Y0061100D01*
X0072233Y0061100D01*
X0073200Y0062067D01*
X0073200Y0063433D01*
X0072233Y0064400D01*
X0070867Y0064400D01*
X0069900Y0063433D01*
X0069900Y0063379D02*
X0063954Y0063379D01*
X0064150Y0062881D02*
X0069900Y0062881D01*
X0069900Y0062382D02*
X0064150Y0062382D01*
X0064150Y0061884D02*
X0070083Y0061884D01*
X0070581Y0061385D02*
X0063719Y0061385D01*
X0063220Y0060887D02*
X0075650Y0060887D01*
X0075650Y0060388D02*
X0023302Y0060388D01*
X0022804Y0059890D02*
X0075650Y0059890D01*
X0075650Y0059391D02*
X0022305Y0059391D01*
X0021807Y0058893D02*
X0075650Y0058893D01*
X0075650Y0058394D02*
X0021308Y0058394D01*
X0020810Y0057896D02*
X0043062Y0057896D01*
X0043067Y0057900D02*
X0042100Y0056933D01*
X0042100Y0055567D01*
X0043067Y0054600D01*
X0043600Y0054600D01*
X0043600Y0053317D01*
X0044567Y0052350D01*
X0045933Y0052350D01*
X0046425Y0052842D01*
X0046917Y0052350D01*
X0048283Y0052350D01*
X0048800Y0052867D01*
X0049267Y0052400D01*
X0050633Y0052400D01*
X0051600Y0053367D01*
X0051600Y0054733D01*
X0050633Y0055700D01*
X0049267Y0055700D01*
X0048750Y0055183D01*
X0048283Y0055650D01*
X0046917Y0055650D01*
X0046425Y0055158D01*
X0045933Y0055650D01*
X0045400Y0055650D01*
X0045400Y0056933D01*
X0044433Y0057900D01*
X0043067Y0057900D01*
X0042564Y0057397D02*
X0020311Y0057397D01*
X0019813Y0056899D02*
X0042100Y0056899D01*
X0042100Y0056400D02*
X0027014Y0056400D01*
X0026250Y0055750D02*
X0021500Y0055750D01*
X0020736Y0056400D02*
X0019314Y0056400D01*
X0018816Y0055902D02*
X0020237Y0055902D01*
X0018820Y0055403D02*
X0018317Y0055403D01*
X0017750Y0056250D02*
X0015250Y0056250D01*
X0013750Y0054750D01*
X0013750Y0044950D01*
X0014750Y0046928D02*
X0017238Y0046928D01*
X0016740Y0047427D02*
X0014750Y0047427D01*
X0014750Y0047925D02*
X0016600Y0047925D01*
X0016600Y0048424D02*
X0014750Y0048424D01*
X0014750Y0048922D02*
X0016600Y0048922D01*
X0017088Y0049421D02*
X0014750Y0049421D01*
X0013487Y0055902D02*
X0011400Y0055902D01*
X0011400Y0056400D02*
X0013986Y0056400D01*
X0014484Y0056899D02*
X0011400Y0056899D01*
X0011400Y0057397D02*
X0017483Y0057397D01*
X0017981Y0057896D02*
X0011400Y0057896D01*
X0011400Y0058394D02*
X0018480Y0058394D01*
X0018979Y0058893D02*
X0011400Y0058893D01*
X0011400Y0059391D02*
X0019477Y0059391D01*
X0019976Y0059890D02*
X0011400Y0059890D01*
X0011400Y0060388D02*
X0020474Y0060388D01*
X0019130Y0060887D02*
X0016420Y0060887D01*
X0016133Y0060600D02*
X0017100Y0061567D01*
X0017100Y0062933D01*
X0016133Y0063900D01*
X0014767Y0063900D01*
X0013800Y0062933D01*
X0013800Y0061567D01*
X0014767Y0060600D01*
X0016133Y0060600D01*
X0016919Y0061385D02*
X0018631Y0061385D01*
X0018450Y0061884D02*
X0017100Y0061884D01*
X0017100Y0062382D02*
X0018450Y0062382D01*
X0018450Y0062881D02*
X0017100Y0062881D01*
X0016654Y0063379D02*
X0018896Y0063379D01*
X0019394Y0063878D02*
X0016156Y0063878D01*
X0014744Y0063878D02*
X0013256Y0063878D01*
X0013700Y0063379D02*
X0014246Y0063379D01*
X0013800Y0062881D02*
X0013700Y0062881D01*
X0013700Y0062382D02*
X0013800Y0062382D01*
X0013800Y0061884D02*
X0013517Y0061884D01*
X0013981Y0061385D02*
X0013019Y0061385D01*
X0014480Y0060887D02*
X0011400Y0060887D01*
X0012757Y0064376D02*
X0020812Y0064376D01*
X0021311Y0064875D02*
X0011400Y0064875D01*
X0011400Y0065373D02*
X0075650Y0065373D01*
X0075650Y0064875D02*
X0027789Y0064875D01*
X0028288Y0064376D02*
X0036793Y0064376D01*
X0036817Y0064400D02*
X0035850Y0063433D01*
X0035850Y0062067D01*
X0036817Y0061100D01*
X0038183Y0061100D01*
X0039150Y0062067D01*
X0039150Y0063433D01*
X0038183Y0064400D01*
X0036817Y0064400D01*
X0036294Y0063878D02*
X0029706Y0063878D01*
X0030204Y0063379D02*
X0035850Y0063379D01*
X0035850Y0062881D02*
X0030650Y0062881D01*
X0030650Y0062382D02*
X0035850Y0062382D01*
X0036033Y0061884D02*
X0030650Y0061884D01*
X0030469Y0061385D02*
X0036531Y0061385D01*
X0038469Y0061385D02*
X0043931Y0061385D01*
X0043433Y0061884D02*
X0038967Y0061884D01*
X0039150Y0062382D02*
X0043150Y0062382D01*
X0043150Y0062881D02*
X0039150Y0062881D01*
X0039150Y0063379D02*
X0043150Y0063379D01*
X0043494Y0063878D02*
X0038706Y0063878D01*
X0038207Y0064376D02*
X0043993Y0064376D01*
X0045607Y0064376D02*
X0053543Y0064376D01*
X0053044Y0063878D02*
X0047756Y0063878D01*
X0048254Y0063379D02*
X0052600Y0063379D01*
X0052600Y0062881D02*
X0048700Y0062881D01*
X0048700Y0062382D02*
X0052600Y0062382D01*
X0052783Y0061884D02*
X0048700Y0061884D01*
X0048519Y0061385D02*
X0053281Y0061385D01*
X0054957Y0064376D02*
X0070843Y0064376D01*
X0072257Y0064376D02*
X0074243Y0064376D01*
X0073744Y0063878D02*
X0072756Y0063878D01*
X0073200Y0063379D02*
X0073300Y0063379D01*
X0073300Y0062881D02*
X0073200Y0062881D01*
X0073200Y0062382D02*
X0073300Y0062382D01*
X0073483Y0061884D02*
X0073017Y0061884D01*
X0072519Y0061385D02*
X0073981Y0061385D01*
X0075650Y0057896D02*
X0044438Y0057896D01*
X0044936Y0057397D02*
X0075650Y0057397D01*
X0075650Y0056899D02*
X0045400Y0056899D01*
X0045400Y0056400D02*
X0075650Y0056400D01*
X0075650Y0055902D02*
X0045400Y0055902D01*
X0046180Y0055403D02*
X0046670Y0055403D01*
X0048530Y0055403D02*
X0048970Y0055403D01*
X0050930Y0055403D02*
X0053220Y0055403D01*
X0052750Y0054905D02*
X0051429Y0054905D01*
X0051600Y0054406D02*
X0052750Y0054406D01*
X0052750Y0053908D02*
X0051600Y0053908D01*
X0051600Y0053409D02*
X0052907Y0053409D01*
X0053406Y0052911D02*
X0051144Y0052911D01*
X0050646Y0052412D02*
X0062054Y0052412D01*
X0061556Y0052911D02*
X0055394Y0052911D01*
X0054400Y0054250D02*
X0062550Y0054250D01*
X0062750Y0054050D01*
X0062950Y0054250D01*
X0065250Y0054250D01*
X0065250Y0046250D01*
X0065950Y0045450D01*
X0064300Y0045433D02*
X0064100Y0045433D01*
X0064100Y0045931D02*
X0064227Y0045931D01*
X0064250Y0046430D02*
X0063754Y0046430D01*
X0064250Y0046928D02*
X0063255Y0046928D01*
X0061645Y0046928D02*
X0051055Y0046928D01*
X0049245Y0046928D02*
X0048705Y0046928D01*
X0046895Y0046928D02*
X0046355Y0046928D01*
X0046221Y0043937D02*
X0047029Y0043937D01*
X0048571Y0043937D02*
X0049379Y0043937D01*
X0049370Y0038454D02*
X0045930Y0038454D01*
X0048128Y0037955D02*
X0048872Y0037955D01*
X0048850Y0037457D02*
X0048600Y0037457D01*
X0048600Y0036958D02*
X0048850Y0036958D01*
X0048957Y0036460D02*
X0048600Y0036460D01*
X0048445Y0035961D02*
X0049455Y0035961D01*
X0049000Y0031250D02*
X0052250Y0028500D01*
X0053104Y0029979D02*
X0053896Y0029979D01*
X0053929Y0026988D02*
X0053071Y0026988D01*
X0055571Y0026988D02*
X0065179Y0026988D01*
X0064680Y0027487D02*
X0064020Y0027487D01*
X0064518Y0027985D02*
X0064600Y0027985D01*
X0064600Y0028484D02*
X0064600Y0028484D01*
X0064600Y0028982D02*
X0064649Y0028982D01*
X0064553Y0029481D02*
X0065147Y0029481D01*
X0061880Y0027487D02*
X0061670Y0027487D01*
X0061837Y0023997D02*
X0068070Y0023997D01*
X0067665Y0023498D02*
X0062335Y0023498D01*
X0062400Y0023000D02*
X0067600Y0023000D01*
X0067600Y0022501D02*
X0062400Y0022501D01*
X0062336Y0022003D02*
X0067664Y0022003D01*
X0067600Y0024495D02*
X0036579Y0024495D01*
X0036337Y0023997D02*
X0042413Y0023997D01*
X0041915Y0023498D02*
X0036835Y0023498D01*
X0036900Y0023000D02*
X0041850Y0023000D01*
X0041850Y0022501D02*
X0036900Y0022501D01*
X0036836Y0022003D02*
X0041914Y0022003D01*
X0045086Y0022003D02*
X0050414Y0022003D01*
X0050350Y0022501D02*
X0045150Y0022501D01*
X0045150Y0023000D02*
X0050350Y0023000D01*
X0050415Y0023498D02*
X0045085Y0023498D01*
X0044587Y0023997D02*
X0050913Y0023997D01*
X0053087Y0023997D02*
X0059663Y0023997D01*
X0059165Y0023498D02*
X0053585Y0023498D01*
X0053650Y0023000D02*
X0059100Y0023000D01*
X0059100Y0022501D02*
X0053650Y0022501D01*
X0053586Y0022003D02*
X0059164Y0022003D01*
X0067600Y0024994D02*
X0036900Y0024994D01*
X0036900Y0025492D02*
X0067600Y0025492D01*
X0067758Y0025991D02*
X0036900Y0025991D01*
X0036594Y0026489D02*
X0068256Y0026489D01*
X0068296Y0032970D02*
X0057794Y0032970D01*
X0057296Y0033469D02*
X0067798Y0033469D01*
X0067500Y0033967D02*
X0056797Y0033967D01*
X0056299Y0034466D02*
X0063870Y0034466D01*
X0063372Y0034964D02*
X0028450Y0034964D01*
X0027530Y0040946D02*
X0061039Y0040946D01*
X0060541Y0041445D02*
X0028028Y0041445D01*
X0028150Y0041943D02*
X0060042Y0041943D01*
X0061375Y0043439D02*
X0062997Y0043439D01*
X0063495Y0042940D02*
X0061874Y0042940D01*
X0062372Y0042442D02*
X0063994Y0042442D01*
X0064600Y0043250D02*
X0062450Y0045400D01*
X0061579Y0043937D02*
X0060877Y0043937D01*
X0061081Y0044436D02*
X0056769Y0044436D01*
X0056900Y0044934D02*
X0060800Y0044934D01*
X0060800Y0045433D02*
X0056900Y0045433D01*
X0056900Y0045931D02*
X0060800Y0045931D01*
X0061146Y0046430D02*
X0056404Y0046430D01*
X0062871Y0041943D02*
X0075650Y0041943D01*
X0075650Y0041445D02*
X0063369Y0041445D01*
X0063868Y0040946D02*
X0075650Y0040946D01*
X0075650Y0040448D02*
X0064366Y0040448D01*
X0064865Y0039949D02*
X0075650Y0039949D01*
X0075650Y0039451D02*
X0065363Y0039451D01*
X0065862Y0038952D02*
X0075650Y0038952D01*
X0075650Y0042442D02*
X0068906Y0042442D01*
X0069405Y0042940D02*
X0075650Y0042940D01*
X0075650Y0043439D02*
X0069903Y0043439D01*
X0071321Y0043937D02*
X0075650Y0043937D01*
X0073931Y0044436D02*
X0073569Y0044436D01*
X0073705Y0046928D02*
X0073795Y0046928D01*
X0075650Y0047427D02*
X0066250Y0047427D01*
X0066250Y0047925D02*
X0075650Y0047925D01*
X0075650Y0048424D02*
X0066250Y0048424D01*
X0066250Y0048922D02*
X0075650Y0048922D01*
X0075650Y0049421D02*
X0066250Y0049421D01*
X0066250Y0049920D02*
X0075650Y0049920D01*
X0075650Y0050418D02*
X0066250Y0050418D01*
X0066250Y0050917D02*
X0075650Y0050917D01*
X0075650Y0051415D02*
X0066250Y0051415D01*
X0066250Y0051914D02*
X0075650Y0051914D01*
X0075650Y0052412D02*
X0066250Y0052412D01*
X0066250Y0052911D02*
X0070556Y0052911D01*
X0071550Y0054250D02*
X0065250Y0054250D01*
X0064250Y0052911D02*
X0063944Y0052911D01*
X0064250Y0052412D02*
X0063446Y0052412D01*
X0063730Y0055403D02*
X0070370Y0055403D01*
X0072730Y0055403D02*
X0073770Y0055403D01*
X0073300Y0054905D02*
X0073200Y0054905D01*
X0073200Y0054406D02*
X0073300Y0054406D01*
X0073300Y0053908D02*
X0073200Y0053908D01*
X0073043Y0053409D02*
X0073457Y0053409D01*
X0073956Y0052911D02*
X0072544Y0052911D01*
X0071395Y0046928D02*
X0066805Y0046928D01*
X0067304Y0046430D02*
X0069146Y0046430D01*
X0068650Y0045931D02*
X0067600Y0045931D01*
X0067600Y0045433D02*
X0068650Y0045433D01*
X0068570Y0044934D02*
X0067600Y0044934D01*
X0067269Y0044436D02*
X0068072Y0044436D01*
X0068300Y0043250D02*
X0064600Y0043250D01*
X0068300Y0043250D02*
X0070300Y0045250D01*
X0061770Y0055403D02*
X0055580Y0055403D01*
X0049254Y0052412D02*
X0048346Y0052412D01*
X0046854Y0052412D02*
X0045996Y0052412D01*
X0044504Y0052412D02*
X0040246Y0052412D01*
X0040183Y0052350D02*
X0041150Y0053317D01*
X0041150Y0054683D01*
X0040183Y0055650D01*
X0038817Y0055650D01*
X0038250Y0055083D01*
X0037683Y0055650D01*
X0036317Y0055650D01*
X0035350Y0054683D01*
X0035350Y0053317D01*
X0036317Y0052350D01*
X0037683Y0052350D01*
X0038250Y0052917D01*
X0038817Y0052350D01*
X0040183Y0052350D01*
X0040744Y0052911D02*
X0044006Y0052911D01*
X0043600Y0053409D02*
X0041150Y0053409D01*
X0041150Y0053908D02*
X0043600Y0053908D01*
X0043600Y0054406D02*
X0041150Y0054406D01*
X0040929Y0054905D02*
X0042762Y0054905D01*
X0042263Y0055403D02*
X0040430Y0055403D01*
X0042100Y0055902D02*
X0028432Y0055902D01*
X0028930Y0055403D02*
X0036070Y0055403D01*
X0035571Y0054905D02*
X0029300Y0054905D01*
X0029300Y0054406D02*
X0035350Y0054406D01*
X0035350Y0053908D02*
X0029300Y0053908D01*
X0029043Y0053409D02*
X0035350Y0053409D01*
X0035756Y0052911D02*
X0028544Y0052911D01*
X0027650Y0054350D02*
X0026250Y0055750D01*
X0026000Y0054406D02*
X0025000Y0054406D01*
X0025000Y0053908D02*
X0026000Y0053908D01*
X0026257Y0053409D02*
X0025000Y0053409D01*
X0024644Y0052911D02*
X0026756Y0052911D01*
X0024146Y0052412D02*
X0036254Y0052412D01*
X0037746Y0052412D02*
X0038754Y0052412D01*
X0038256Y0052911D02*
X0038244Y0052911D01*
X0037930Y0055403D02*
X0038570Y0055403D01*
X0030250Y0054750D02*
X0029950Y0053750D01*
X0028030Y0060887D02*
X0024720Y0060887D01*
X0027000Y0064250D02*
X0022100Y0064250D01*
X0020100Y0062250D01*
X0019555Y0069361D02*
X0016395Y0069361D01*
X0016893Y0069860D02*
X0019057Y0069860D01*
X0018600Y0070358D02*
X0017100Y0070358D01*
X0017100Y0070857D02*
X0018600Y0070857D01*
X0018480Y0071355D02*
X0017100Y0071355D01*
X0018500Y0072750D02*
X0020250Y0071000D01*
X0021443Y0069860D02*
X0022807Y0069860D01*
X0022350Y0070317D02*
X0023317Y0069350D01*
X0024683Y0069350D01*
X0025650Y0070317D01*
X0025650Y0071683D01*
X0024683Y0072650D01*
X0023317Y0072650D01*
X0022350Y0071683D01*
X0022350Y0070317D01*
X0022350Y0070358D02*
X0021900Y0070358D01*
X0021900Y0070857D02*
X0022350Y0070857D01*
X0022350Y0071355D02*
X0021900Y0071355D01*
X0021729Y0071854D02*
X0022521Y0071854D01*
X0023019Y0072353D02*
X0021231Y0072353D01*
X0019813Y0072851D02*
X0052768Y0072851D01*
X0052817Y0072900D02*
X0051850Y0071933D01*
X0051850Y0070567D01*
X0052817Y0069600D01*
X0054183Y0069600D01*
X0055150Y0070567D01*
X0055150Y0071933D01*
X0054183Y0072900D01*
X0052817Y0072900D01*
X0052269Y0072353D02*
X0047781Y0072353D01*
X0047733Y0072400D02*
X0046367Y0072400D01*
X0045400Y0071433D01*
X0045400Y0070067D01*
X0046367Y0069100D01*
X0047733Y0069100D01*
X0048700Y0070067D01*
X0048700Y0071433D01*
X0047733Y0072400D01*
X0048279Y0071854D02*
X0051850Y0071854D01*
X0051850Y0071355D02*
X0048700Y0071355D01*
X0048700Y0070857D02*
X0051850Y0070857D01*
X0052058Y0070358D02*
X0048700Y0070358D01*
X0048493Y0069860D02*
X0052557Y0069860D01*
X0054443Y0069860D02*
X0062257Y0069860D01*
X0061800Y0070317D02*
X0062767Y0069350D01*
X0064133Y0069350D01*
X0065100Y0070317D01*
X0065100Y0071683D01*
X0064133Y0072650D01*
X0062767Y0072650D01*
X0061800Y0071683D01*
X0061800Y0070317D01*
X0061800Y0070358D02*
X0061092Y0070358D01*
X0060633Y0069900D02*
X0061600Y0070867D01*
X0061600Y0072233D01*
X0060633Y0073200D01*
X0059267Y0073200D01*
X0058300Y0072233D01*
X0058300Y0070867D01*
X0059267Y0069900D01*
X0060633Y0069900D01*
X0061590Y0070857D02*
X0061800Y0070857D01*
X0061800Y0071355D02*
X0061600Y0071355D01*
X0061600Y0071854D02*
X0061971Y0071854D01*
X0061481Y0072353D02*
X0062469Y0072353D01*
X0060982Y0072851D02*
X0074218Y0072851D01*
X0073719Y0072353D02*
X0072281Y0072353D01*
X0072233Y0072400D02*
X0070867Y0072400D01*
X0069900Y0071433D01*
X0069900Y0070083D01*
X0069883Y0070100D01*
X0068517Y0070100D01*
X0067550Y0069133D01*
X0067550Y0067767D01*
X0068517Y0066800D01*
X0069883Y0066800D01*
X0070850Y0067767D01*
X0070850Y0069117D01*
X0070867Y0069100D01*
X0072233Y0069100D01*
X0073200Y0070067D01*
X0073200Y0071433D01*
X0072233Y0072400D01*
X0072779Y0071854D02*
X0073300Y0071854D01*
X0073300Y0071355D02*
X0073200Y0071355D01*
X0073200Y0070857D02*
X0073300Y0070857D01*
X0073200Y0070358D02*
X0073508Y0070358D01*
X0074007Y0069860D02*
X0072993Y0069860D01*
X0072495Y0069361D02*
X0075650Y0069361D01*
X0075650Y0068863D02*
X0070850Y0068863D01*
X0070850Y0068364D02*
X0075650Y0068364D01*
X0075650Y0067866D02*
X0070850Y0067866D01*
X0070451Y0067367D02*
X0075650Y0067367D01*
X0075650Y0066869D02*
X0069952Y0066869D01*
X0068448Y0066869D02*
X0011400Y0066869D01*
X0011400Y0067367D02*
X0067949Y0067367D01*
X0067550Y0067866D02*
X0011400Y0067866D01*
X0011400Y0068364D02*
X0067550Y0068364D01*
X0067550Y0068863D02*
X0011400Y0068863D01*
X0011400Y0069361D02*
X0014505Y0069361D01*
X0014007Y0069860D02*
X0012993Y0069860D01*
X0013492Y0070358D02*
X0013800Y0070358D01*
X0013800Y0070857D02*
X0013700Y0070857D01*
X0013700Y0071355D02*
X0013800Y0071355D01*
X0013550Y0072750D02*
X0018500Y0072750D01*
X0019315Y0073350D02*
X0075650Y0073350D01*
X0075650Y0073848D02*
X0011400Y0073848D01*
X0011400Y0073350D02*
X0012735Y0073350D01*
X0013550Y0072750D02*
X0012050Y0071250D01*
X0011400Y0074347D02*
X0075650Y0074347D01*
X0075650Y0074845D02*
X0011400Y0074845D01*
X0011400Y0075344D02*
X0075650Y0075344D01*
X0075650Y0075842D02*
X0011400Y0075842D01*
X0011400Y0076341D02*
X0075650Y0076341D01*
X0075650Y0076839D02*
X0011400Y0076839D01*
X0011400Y0077338D02*
X0075650Y0077338D01*
X0075650Y0077836D02*
X0071270Y0077836D01*
X0069430Y0077836D02*
X0055870Y0077836D01*
X0055633Y0077600D02*
X0056600Y0078567D01*
X0056600Y0079933D01*
X0055633Y0080900D01*
X0054267Y0080900D01*
X0053300Y0079933D01*
X0053300Y0078567D01*
X0054267Y0077600D01*
X0055633Y0077600D01*
X0056368Y0078335D02*
X0062132Y0078335D01*
X0062467Y0078000D02*
X0061500Y0078967D01*
X0061500Y0080333D01*
X0062467Y0081300D01*
X0063833Y0081300D01*
X0064800Y0080333D01*
X0064800Y0078967D01*
X0063833Y0078000D01*
X0062467Y0078000D01*
X0061633Y0078833D02*
X0060867Y0078833D01*
X0060533Y0078500D02*
X0061500Y0079467D01*
X0061500Y0080833D01*
X0060533Y0081800D01*
X0059167Y0081800D01*
X0058200Y0080833D01*
X0058200Y0079467D01*
X0059167Y0078500D01*
X0060533Y0078500D01*
X0061365Y0079332D02*
X0061500Y0079332D01*
X0061500Y0079830D02*
X0061500Y0079830D01*
X0061500Y0080329D02*
X0061500Y0080329D01*
X0061500Y0080827D02*
X0061994Y0080827D01*
X0061008Y0081326D02*
X0071892Y0081326D01*
X0071394Y0080827D02*
X0071106Y0080827D01*
X0069594Y0080827D02*
X0064306Y0080827D01*
X0064800Y0080329D02*
X0069095Y0080329D01*
X0068700Y0079830D02*
X0064800Y0079830D01*
X0064800Y0079332D02*
X0068700Y0079332D01*
X0068700Y0078833D02*
X0064667Y0078833D01*
X0064168Y0078335D02*
X0068932Y0078335D01*
X0073568Y0078335D02*
X0074032Y0078335D01*
X0074192Y0081326D02*
X0073408Y0081326D01*
X0075650Y0081824D02*
X0011400Y0081824D01*
X0011400Y0082323D02*
X0075650Y0082323D01*
X0075650Y0082821D02*
X0011400Y0082821D01*
X0011400Y0083320D02*
X0075650Y0083320D01*
X0075650Y0083818D02*
X0069652Y0083818D01*
X0070150Y0084317D02*
X0075650Y0084317D01*
X0075650Y0084815D02*
X0070400Y0084815D01*
X0070400Y0085314D02*
X0075650Y0085314D01*
X0075650Y0085812D02*
X0070400Y0085812D01*
X0067848Y0083818D02*
X0027152Y0083818D01*
X0027650Y0084317D02*
X0067350Y0084317D01*
X0067100Y0084815D02*
X0027900Y0084815D01*
X0027900Y0085314D02*
X0067100Y0085314D01*
X0067100Y0085812D02*
X0027900Y0085812D01*
X0025348Y0083818D02*
X0018652Y0083818D01*
X0019150Y0084317D02*
X0024850Y0084317D01*
X0024600Y0084815D02*
X0019400Y0084815D01*
X0019400Y0085314D02*
X0024600Y0085314D01*
X0024600Y0085812D02*
X0019400Y0085812D01*
X0016848Y0083818D02*
X0011400Y0083818D01*
X0011400Y0084317D02*
X0016350Y0084317D01*
X0016100Y0084815D02*
X0011400Y0084815D01*
X0011400Y0085314D02*
X0016100Y0085314D01*
X0016100Y0085812D02*
X0011400Y0085812D01*
X0012808Y0081326D02*
X0019742Y0081326D01*
X0019817Y0081400D02*
X0018850Y0080433D01*
X0018850Y0079067D01*
X0019817Y0078100D01*
X0021183Y0078100D01*
X0022150Y0079067D01*
X0022150Y0080433D01*
X0021183Y0081400D01*
X0019817Y0081400D01*
X0019244Y0080827D02*
X0016206Y0080827D01*
X0016133Y0080900D02*
X0014767Y0080900D01*
X0013800Y0079933D01*
X0013800Y0078567D01*
X0014767Y0077600D01*
X0016133Y0077600D01*
X0017100Y0078567D01*
X0017100Y0079933D01*
X0016133Y0080900D01*
X0016705Y0080329D02*
X0018850Y0080329D01*
X0018850Y0079830D02*
X0017100Y0079830D01*
X0017100Y0079332D02*
X0018850Y0079332D01*
X0019083Y0078833D02*
X0017100Y0078833D01*
X0016868Y0078335D02*
X0019582Y0078335D01*
X0021418Y0078335D02*
X0027832Y0078335D01*
X0028067Y0078100D02*
X0027100Y0079067D01*
X0027100Y0080433D01*
X0028067Y0081400D01*
X0029433Y0081400D01*
X0030400Y0080433D01*
X0030400Y0079067D01*
X0029433Y0078100D01*
X0028067Y0078100D01*
X0027333Y0078833D02*
X0021917Y0078833D01*
X0022150Y0079332D02*
X0027100Y0079332D01*
X0027100Y0079830D02*
X0022150Y0079830D01*
X0022150Y0080329D02*
X0027100Y0080329D01*
X0027494Y0080827D02*
X0021756Y0080827D01*
X0021258Y0081326D02*
X0027992Y0081326D01*
X0029508Y0081326D02*
X0036492Y0081326D01*
X0036567Y0081400D02*
X0035600Y0080433D01*
X0035600Y0079067D01*
X0036567Y0078100D01*
X0037933Y0078100D01*
X0038900Y0079067D01*
X0038900Y0080433D01*
X0037933Y0081400D01*
X0036567Y0081400D01*
X0035994Y0080827D02*
X0030006Y0080827D01*
X0030400Y0080329D02*
X0035600Y0080329D01*
X0035600Y0079830D02*
X0030400Y0079830D01*
X0030400Y0079332D02*
X0035600Y0079332D01*
X0035833Y0078833D02*
X0030167Y0078833D01*
X0029668Y0078335D02*
X0036332Y0078335D01*
X0038168Y0078335D02*
X0044832Y0078335D01*
X0045067Y0078100D02*
X0046433Y0078100D01*
X0047400Y0079067D01*
X0047400Y0080433D01*
X0046433Y0081400D01*
X0045067Y0081400D01*
X0044100Y0080433D01*
X0044100Y0079067D01*
X0045067Y0078100D01*
X0044333Y0078833D02*
X0038667Y0078833D01*
X0038900Y0079332D02*
X0044100Y0079332D01*
X0044100Y0079830D02*
X0038900Y0079830D01*
X0038900Y0080329D02*
X0044100Y0080329D01*
X0044494Y0080827D02*
X0038506Y0080827D01*
X0038008Y0081326D02*
X0044992Y0081326D01*
X0046508Y0081326D02*
X0050592Y0081326D01*
X0050917Y0081650D02*
X0049950Y0080683D01*
X0049950Y0079317D01*
X0050917Y0078350D01*
X0052283Y0078350D01*
X0053250Y0079317D01*
X0053250Y0080683D01*
X0052283Y0081650D01*
X0050917Y0081650D01*
X0050094Y0080827D02*
X0047006Y0080827D01*
X0047400Y0080329D02*
X0049950Y0080329D01*
X0049950Y0079830D02*
X0047400Y0079830D01*
X0047400Y0079332D02*
X0049950Y0079332D01*
X0050433Y0078833D02*
X0047167Y0078833D01*
X0046668Y0078335D02*
X0053532Y0078335D01*
X0053300Y0078833D02*
X0052767Y0078833D01*
X0053250Y0079332D02*
X0053300Y0079332D01*
X0053300Y0079830D02*
X0053250Y0079830D01*
X0053250Y0080329D02*
X0053695Y0080329D01*
X0054194Y0080827D02*
X0053106Y0080827D01*
X0052608Y0081326D02*
X0058692Y0081326D01*
X0058200Y0080827D02*
X0055706Y0080827D01*
X0056205Y0080329D02*
X0058200Y0080329D01*
X0058200Y0079830D02*
X0056600Y0079830D01*
X0056600Y0079332D02*
X0058335Y0079332D01*
X0058833Y0078833D02*
X0056600Y0078833D01*
X0054030Y0077836D02*
X0016370Y0077836D01*
X0014530Y0077836D02*
X0011400Y0077836D01*
X0012968Y0078335D02*
X0014032Y0078335D01*
X0013800Y0078833D02*
X0013467Y0078833D01*
X0013700Y0079332D02*
X0013800Y0079332D01*
X0013800Y0079830D02*
X0013700Y0079830D01*
X0013700Y0080329D02*
X0014195Y0080329D01*
X0014694Y0080827D02*
X0013306Y0080827D01*
X0020945Y0069361D02*
X0023305Y0069361D01*
X0024695Y0069361D02*
X0028305Y0069361D01*
X0028317Y0069350D02*
X0029683Y0069350D01*
X0030650Y0070317D01*
X0030650Y0071683D01*
X0029683Y0072650D01*
X0028317Y0072650D01*
X0027350Y0071683D01*
X0027350Y0070317D01*
X0028317Y0069350D01*
X0027807Y0069860D02*
X0025193Y0069860D01*
X0025650Y0070358D02*
X0027350Y0070358D01*
X0027350Y0070857D02*
X0025650Y0070857D01*
X0025650Y0071355D02*
X0027350Y0071355D01*
X0027521Y0071854D02*
X0025479Y0071854D01*
X0024981Y0072353D02*
X0028019Y0072353D01*
X0029981Y0072353D02*
X0036269Y0072353D01*
X0036567Y0072650D02*
X0035600Y0071683D01*
X0035600Y0070317D01*
X0036567Y0069350D01*
X0037933Y0069350D01*
X0038900Y0070317D01*
X0038900Y0071683D01*
X0037933Y0072650D01*
X0036567Y0072650D01*
X0035771Y0071854D02*
X0030479Y0071854D01*
X0030650Y0071355D02*
X0035600Y0071355D01*
X0035600Y0070857D02*
X0030650Y0070857D01*
X0030650Y0070358D02*
X0035600Y0070358D01*
X0036057Y0069860D02*
X0030193Y0069860D01*
X0029695Y0069361D02*
X0036555Y0069361D01*
X0037945Y0069361D02*
X0046105Y0069361D01*
X0045607Y0069860D02*
X0038443Y0069860D01*
X0038900Y0070358D02*
X0045400Y0070358D01*
X0045400Y0070857D02*
X0038900Y0070857D01*
X0038900Y0071355D02*
X0045400Y0071355D01*
X0045821Y0071854D02*
X0038729Y0071854D01*
X0038231Y0072353D02*
X0046319Y0072353D01*
X0047995Y0069361D02*
X0062755Y0069361D01*
X0064145Y0069361D02*
X0067778Y0069361D01*
X0068277Y0069860D02*
X0064643Y0069860D01*
X0065100Y0070358D02*
X0069900Y0070358D01*
X0069900Y0070857D02*
X0065100Y0070857D01*
X0065100Y0071355D02*
X0069900Y0071355D01*
X0070321Y0071854D02*
X0064929Y0071854D01*
X0064431Y0072353D02*
X0070819Y0072353D01*
X0075650Y0066370D02*
X0011400Y0066370D01*
X0011400Y0065872D02*
X0075650Y0065872D01*
X0058918Y0072851D02*
X0054232Y0072851D01*
X0054731Y0072353D02*
X0058419Y0072353D01*
X0058300Y0071854D02*
X0055150Y0071854D01*
X0055150Y0071355D02*
X0058300Y0071355D01*
X0058310Y0070857D02*
X0055150Y0070857D01*
X0054942Y0070358D02*
X0058808Y0070358D01*
X0046344Y0063878D02*
X0046106Y0063878D01*
X0022622Y0037955D02*
X0022528Y0037955D01*
X0055296Y0035463D02*
X0056300Y0035463D01*
X0055802Y0035961D02*
X0055795Y0035961D01*
M02*
