G75*
%MOIN*%
%OFA0B0*%
%FSLAX25Y25*%
%IPPOS*%
%LPD*%
%AMOC8*
5,1,8,0,0,1.08239X$1,22.5*
%
%ADD10R,0.01772X0.01772*%
%ADD11C,0.00500*%
%ADD12C,0.01800*%
%ADD13C,0.00600*%
D10*
X0012077Y0022577D03*
X0012077Y0025923D03*
X0015423Y0025923D03*
X0015423Y0022577D03*
X0020577Y0022577D03*
X0020577Y0025923D03*
X0023923Y0025923D03*
X0023923Y0022577D03*
X0029077Y0022577D03*
X0029077Y0025923D03*
X0032423Y0025923D03*
X0032423Y0022577D03*
X0037577Y0022577D03*
X0037577Y0025923D03*
X0040923Y0025923D03*
X0040923Y0022577D03*
X0046077Y0022577D03*
X0046077Y0025923D03*
X0049423Y0025923D03*
X0049423Y0022577D03*
X0054577Y0022577D03*
X0054577Y0025923D03*
X0057923Y0025923D03*
X0057923Y0022577D03*
X0063077Y0022577D03*
X0063077Y0025923D03*
X0066423Y0025923D03*
X0066423Y0022577D03*
X0071577Y0022577D03*
X0071577Y0025923D03*
X0074923Y0025923D03*
X0074923Y0022577D03*
X0074923Y0031077D03*
X0071577Y0031077D03*
X0071577Y0034423D03*
X0074923Y0034423D03*
X0074923Y0039577D03*
X0071577Y0039577D03*
X0071577Y0042923D03*
X0074923Y0042923D03*
X0074923Y0048077D03*
X0074923Y0051423D03*
X0071577Y0051423D03*
X0071577Y0048077D03*
X0066423Y0048077D03*
X0066423Y0051423D03*
X0063077Y0051423D03*
X0063077Y0048077D03*
X0063077Y0042923D03*
X0063077Y0039577D03*
X0066423Y0039577D03*
X0066423Y0042923D03*
X0066423Y0034423D03*
X0066423Y0031077D03*
X0063077Y0031077D03*
X0063077Y0034423D03*
X0057923Y0034423D03*
X0057923Y0031077D03*
X0054577Y0031077D03*
X0054577Y0034423D03*
X0054577Y0039577D03*
X0054577Y0042923D03*
X0057923Y0042923D03*
X0057923Y0039577D03*
X0057923Y0048077D03*
X0057923Y0051423D03*
X0054577Y0051423D03*
X0054577Y0048077D03*
X0049423Y0048077D03*
X0049423Y0051423D03*
X0046077Y0051423D03*
X0046077Y0048077D03*
X0046077Y0042923D03*
X0046077Y0039577D03*
X0049423Y0039577D03*
X0049423Y0042923D03*
X0049423Y0034423D03*
X0049423Y0031077D03*
X0046077Y0031077D03*
X0046077Y0034423D03*
X0040923Y0034423D03*
X0040923Y0031077D03*
X0037577Y0031077D03*
X0037577Y0034423D03*
X0037577Y0039577D03*
X0037577Y0042923D03*
X0040923Y0042923D03*
X0040923Y0039577D03*
X0040923Y0048077D03*
X0040923Y0051423D03*
X0037577Y0051423D03*
X0037577Y0048077D03*
X0032423Y0048077D03*
X0032423Y0051423D03*
X0029077Y0051423D03*
X0029077Y0048077D03*
X0029077Y0042923D03*
X0032423Y0042923D03*
X0032423Y0039577D03*
X0029077Y0039577D03*
X0029077Y0034423D03*
X0032423Y0034423D03*
X0032423Y0031077D03*
X0029077Y0031077D03*
X0023923Y0031077D03*
X0023923Y0034423D03*
X0020577Y0034423D03*
X0020577Y0031077D03*
X0015423Y0031077D03*
X0015423Y0034423D03*
X0012077Y0034423D03*
X0012077Y0031077D03*
X0012077Y0039577D03*
X0012077Y0042923D03*
X0015423Y0042923D03*
X0015423Y0039577D03*
X0020577Y0039577D03*
X0020577Y0042923D03*
X0023923Y0042923D03*
X0023923Y0039577D03*
X0023923Y0048077D03*
X0023923Y0051423D03*
X0020577Y0051423D03*
X0020577Y0048077D03*
X0015423Y0048077D03*
X0015423Y0051423D03*
X0012077Y0051423D03*
X0012077Y0048077D03*
X0012077Y0056577D03*
X0012077Y0059923D03*
X0015423Y0059923D03*
X0015423Y0056577D03*
X0020577Y0056577D03*
X0020577Y0059923D03*
X0023923Y0059923D03*
X0023923Y0056577D03*
X0029077Y0056577D03*
X0029077Y0059923D03*
X0032423Y0059923D03*
X0032423Y0056577D03*
X0037577Y0056577D03*
X0037577Y0059923D03*
X0040923Y0059923D03*
X0040923Y0056577D03*
X0046077Y0056577D03*
X0046077Y0059923D03*
X0049423Y0059923D03*
X0049423Y0056577D03*
X0054577Y0056577D03*
X0054577Y0059923D03*
X0057923Y0059923D03*
X0057923Y0056577D03*
X0063077Y0056577D03*
X0063077Y0059923D03*
X0066423Y0059923D03*
X0066423Y0056577D03*
X0071577Y0056577D03*
X0071577Y0059923D03*
X0074923Y0059923D03*
X0074923Y0056577D03*
X0074923Y0065077D03*
X0071577Y0065077D03*
X0071577Y0068423D03*
X0074923Y0068423D03*
X0074923Y0073577D03*
X0074923Y0076923D03*
X0071577Y0076923D03*
X0071577Y0073577D03*
X0066423Y0073577D03*
X0066423Y0076923D03*
X0063077Y0076923D03*
X0063077Y0073577D03*
X0063077Y0068423D03*
X0063077Y0065077D03*
X0066423Y0065077D03*
X0066423Y0068423D03*
X0057923Y0068423D03*
X0057923Y0065077D03*
X0054577Y0065077D03*
X0054577Y0068423D03*
X0054577Y0073577D03*
X0054577Y0076923D03*
X0057923Y0076923D03*
X0057923Y0073577D03*
X0057923Y0082077D03*
X0057923Y0085423D03*
X0054577Y0085423D03*
X0054577Y0082077D03*
X0049423Y0082077D03*
X0049423Y0085423D03*
X0046077Y0085423D03*
X0046077Y0082077D03*
X0040923Y0082077D03*
X0040923Y0085423D03*
X0037577Y0085423D03*
X0037577Y0082077D03*
X0037577Y0076923D03*
X0037577Y0073577D03*
X0040923Y0073577D03*
X0040923Y0076923D03*
X0046077Y0076923D03*
X0046077Y0073577D03*
X0049423Y0073577D03*
X0049423Y0076923D03*
X0049423Y0068423D03*
X0049423Y0065077D03*
X0046077Y0065077D03*
X0046077Y0068423D03*
X0040923Y0068423D03*
X0040923Y0065077D03*
X0037577Y0065077D03*
X0037577Y0068423D03*
X0032423Y0068423D03*
X0029077Y0068423D03*
X0029077Y0065077D03*
X0032423Y0065077D03*
X0032423Y0073577D03*
X0032423Y0076923D03*
X0029077Y0076923D03*
X0029077Y0073577D03*
X0023923Y0073577D03*
X0023923Y0076923D03*
X0020577Y0076923D03*
X0020577Y0073577D03*
X0020577Y0068423D03*
X0020577Y0065077D03*
X0023923Y0065077D03*
X0023923Y0068423D03*
X0015423Y0068423D03*
X0015423Y0065077D03*
X0012077Y0065077D03*
X0012077Y0068423D03*
X0012077Y0073577D03*
X0012077Y0076923D03*
X0015423Y0076923D03*
X0015423Y0073577D03*
X0015423Y0082077D03*
X0015423Y0085423D03*
X0012077Y0085423D03*
X0012077Y0082077D03*
X0020577Y0082077D03*
X0020577Y0085423D03*
X0023923Y0085423D03*
X0023923Y0082077D03*
X0029077Y0082077D03*
X0029077Y0085423D03*
X0032423Y0085423D03*
X0032423Y0082077D03*
X0063077Y0082077D03*
X0063077Y0085423D03*
X0066423Y0085423D03*
X0066423Y0082077D03*
X0071577Y0082077D03*
X0071577Y0085423D03*
X0074923Y0085423D03*
X0074923Y0082077D03*
D11*
X0074750Y0081904D01*
X0074750Y0079950D01*
X0074950Y0079750D01*
X0073250Y0080350D02*
X0072650Y0079750D01*
X0073250Y0079150D01*
X0073250Y0076923D01*
X0074923Y0076923D01*
X0074750Y0077096D01*
X0073250Y0076923D02*
X0073250Y0068423D01*
X0074923Y0068423D01*
X0073250Y0068423D02*
X0073250Y0059923D01*
X0074923Y0059923D01*
X0073250Y0059923D02*
X0073250Y0051423D01*
X0074923Y0051423D01*
X0073250Y0051423D02*
X0073250Y0045750D01*
X0072550Y0045750D01*
X0073250Y0045750D02*
X0073250Y0042923D01*
X0074923Y0042923D01*
X0073250Y0042923D02*
X0073250Y0034250D01*
X0073423Y0034423D01*
X0074923Y0034423D01*
X0073250Y0034250D02*
X0073250Y0027596D01*
X0074923Y0025923D01*
X0075173Y0025923D01*
X0073250Y0024250D02*
X0074577Y0022923D01*
X0074923Y0022923D01*
X0074923Y0022577D01*
X0073250Y0024250D02*
X0070150Y0024250D01*
X0069250Y0025150D01*
X0071327Y0025923D02*
X0069250Y0028000D01*
X0069250Y0034350D01*
X0069150Y0034450D01*
X0069250Y0034550D01*
X0069250Y0042250D01*
X0069250Y0043950D01*
X0068650Y0044550D01*
X0068650Y0045950D01*
X0069250Y0046550D01*
X0069250Y0051423D01*
X0069250Y0059923D01*
X0069250Y0068400D01*
X0069200Y0068450D01*
X0069250Y0068423D02*
X0071577Y0068423D01*
X0071550Y0070750D02*
X0071577Y0070823D01*
X0071577Y0073577D01*
X0071577Y0076923D02*
X0069250Y0076923D01*
X0069250Y0077950D01*
X0068650Y0078550D01*
X0068650Y0079950D01*
X0069900Y0081200D01*
X0069900Y0083746D01*
X0071577Y0085423D01*
X0073250Y0083750D02*
X0073250Y0080350D01*
X0071250Y0080650D02*
X0071250Y0082250D01*
X0071577Y0082077D01*
X0071500Y0082000D01*
X0073250Y0083750D02*
X0074923Y0085423D01*
X0074923Y0085923D01*
X0074796Y0085250D01*
X0074750Y0082250D02*
X0074923Y0082077D01*
X0075577Y0082077D01*
X0075350Y0082250D01*
X0075000Y0082000D02*
X0074923Y0082077D01*
X0071250Y0080650D02*
X0070350Y0079750D01*
X0070350Y0079250D01*
X0068750Y0081550D02*
X0067650Y0080450D01*
X0067650Y0078150D01*
X0066423Y0076923D01*
X0066423Y0076750D01*
X0068250Y0074923D01*
X0068250Y0070250D01*
X0066423Y0068423D01*
X0068250Y0066596D01*
X0068250Y0059923D01*
X0068250Y0051423D01*
X0068250Y0047050D01*
X0067650Y0046450D01*
X0067650Y0044150D01*
X0066423Y0042923D01*
X0068250Y0041096D01*
X0068250Y0036250D01*
X0066750Y0034750D01*
X0066750Y0034250D01*
X0066596Y0034250D01*
X0066423Y0034423D01*
X0066577Y0034423D01*
X0066750Y0034250D01*
X0068250Y0032750D01*
X0068250Y0027750D01*
X0066423Y0025923D01*
X0066250Y0028250D02*
X0064750Y0028250D01*
X0064750Y0024250D01*
X0066423Y0022577D01*
X0067077Y0022577D01*
X0069250Y0022750D02*
X0069423Y0022577D01*
X0071577Y0022577D01*
X0071577Y0025923D02*
X0071327Y0025923D01*
X0071500Y0028750D02*
X0071500Y0031000D01*
X0071577Y0031077D01*
X0074923Y0031077D02*
X0074923Y0028777D01*
X0074950Y0028750D01*
X0075250Y0030750D02*
X0074923Y0031077D01*
X0071577Y0034423D02*
X0069250Y0034423D01*
X0069150Y0034450D01*
X0066423Y0034423D02*
X0066423Y0034077D01*
X0066250Y0031250D02*
X0066250Y0030904D01*
X0064750Y0030904D01*
X0064750Y0028250D01*
X0063077Y0028877D02*
X0062950Y0028750D01*
X0063077Y0028877D02*
X0063077Y0031077D01*
X0064750Y0030904D02*
X0064750Y0039750D01*
X0064923Y0039577D01*
X0066423Y0039577D01*
X0064750Y0039750D02*
X0064750Y0044250D01*
X0064250Y0044750D01*
X0064250Y0046250D01*
X0064750Y0046750D01*
X0064750Y0048250D01*
X0064923Y0048077D01*
X0066423Y0048077D01*
X0064750Y0048250D02*
X0064750Y0056577D01*
X0066423Y0056577D01*
X0064750Y0056577D02*
X0064750Y0065077D01*
X0066423Y0065077D01*
X0066750Y0065077D01*
X0064750Y0065077D02*
X0064750Y0069750D01*
X0065250Y0070250D01*
X0065250Y0071750D01*
X0064750Y0072250D01*
X0064750Y0073577D01*
X0066423Y0073577D01*
X0066423Y0073923D01*
X0066596Y0073750D02*
X0066423Y0073577D01*
X0064750Y0073577D02*
X0064750Y0078250D01*
X0066423Y0079923D01*
X0066423Y0082077D01*
X0068750Y0081550D02*
X0068750Y0085250D01*
X0068577Y0085423D01*
X0066423Y0085423D01*
X0063077Y0085423D02*
X0061250Y0083596D01*
X0061250Y0081250D01*
X0061500Y0080750D01*
X0061500Y0076923D01*
X0063077Y0076923D01*
X0061350Y0076923D01*
X0061350Y0072450D01*
X0061750Y0072050D01*
X0061750Y0070500D01*
X0060750Y0069500D01*
X0060750Y0068423D01*
X0060750Y0059923D01*
X0063077Y0059923D01*
X0060750Y0059923D02*
X0060750Y0051423D01*
X0060750Y0042923D01*
X0060750Y0034423D01*
X0063077Y0034423D01*
X0060750Y0034423D02*
X0060750Y0028750D01*
X0060600Y0028750D01*
X0060750Y0028600D01*
X0060750Y0026750D01*
X0061577Y0025923D01*
X0063077Y0025923D01*
X0063077Y0022577D02*
X0060923Y0022577D01*
X0060750Y0022750D01*
X0059750Y0024750D02*
X0057923Y0022923D01*
X0057923Y0022577D01*
X0059750Y0024750D02*
X0059750Y0027000D01*
X0058250Y0028500D01*
X0058250Y0028750D01*
X0059750Y0030250D01*
X0059750Y0031250D01*
X0058096Y0031250D01*
X0057923Y0031077D01*
X0058577Y0031077D01*
X0059750Y0031250D02*
X0059750Y0039750D01*
X0059750Y0048077D01*
X0057923Y0048077D01*
X0059750Y0048077D02*
X0059750Y0056577D01*
X0059750Y0065250D01*
X0059577Y0065077D01*
X0057923Y0065077D01*
X0059750Y0065250D02*
X0059750Y0069450D01*
X0059050Y0070150D01*
X0058350Y0070150D01*
X0057923Y0070577D01*
X0057923Y0073577D01*
X0057923Y0073923D01*
X0060000Y0076000D01*
X0060000Y0077750D01*
X0059100Y0078650D01*
X0058499Y0078650D01*
X0057650Y0079499D01*
X0057650Y0081554D01*
X0058173Y0082077D01*
X0057923Y0082077D01*
X0056250Y0080650D02*
X0056650Y0080250D01*
X0056650Y0078446D01*
X0056250Y0078046D01*
X0056250Y0076923D01*
X0057923Y0076923D01*
X0056250Y0076923D02*
X0056250Y0068423D01*
X0057923Y0068423D01*
X0057750Y0068596D01*
X0056250Y0068423D02*
X0056250Y0059923D01*
X0056250Y0051423D01*
X0057923Y0051423D01*
X0056250Y0051423D02*
X0056250Y0046750D01*
X0057750Y0045250D01*
X0057750Y0043096D01*
X0057923Y0042923D01*
X0056250Y0041250D01*
X0056250Y0037846D01*
X0056250Y0037000D01*
X0056250Y0036250D01*
X0057000Y0037000D01*
X0056250Y0037000D01*
X0056250Y0036250D02*
X0056250Y0034596D01*
X0057750Y0034596D01*
X0057923Y0034423D01*
X0056250Y0034596D02*
X0056250Y0029750D01*
X0056500Y0029500D01*
X0056500Y0027346D01*
X0057923Y0025923D01*
X0057923Y0025577D01*
X0060750Y0028600D02*
X0060750Y0028750D01*
X0066250Y0030904D02*
X0066423Y0031077D01*
X0062750Y0037000D02*
X0062750Y0039577D01*
X0063077Y0039577D01*
X0059750Y0039750D02*
X0059577Y0039577D01*
X0057923Y0039577D01*
X0056250Y0037846D02*
X0057096Y0037000D01*
X0057000Y0037000D01*
X0054500Y0037000D02*
X0054500Y0039500D01*
X0054577Y0039577D01*
X0051250Y0039577D02*
X0051250Y0043750D01*
X0052250Y0044750D01*
X0052250Y0045750D01*
X0051750Y0046250D01*
X0051750Y0048077D01*
X0049423Y0048077D01*
X0049077Y0048077D01*
X0049250Y0048250D02*
X0049423Y0048077D01*
X0051750Y0048077D02*
X0051750Y0056250D01*
X0051250Y0056750D01*
X0049750Y0056750D01*
X0049673Y0056827D01*
X0049423Y0056577D01*
X0051250Y0056750D02*
X0051250Y0065250D01*
X0051077Y0065077D01*
X0049423Y0065077D01*
X0051250Y0065250D02*
X0051250Y0069500D01*
X0049750Y0071000D01*
X0049750Y0073250D01*
X0049423Y0073577D01*
X0051250Y0075404D01*
X0051250Y0077950D01*
X0049423Y0079777D01*
X0049423Y0082077D01*
X0047750Y0083750D02*
X0047750Y0076923D01*
X0049423Y0076923D01*
X0049423Y0077077D01*
X0049423Y0076923D02*
X0049250Y0077096D01*
X0047750Y0076923D02*
X0047750Y0072346D01*
X0048350Y0071846D01*
X0048750Y0071446D01*
X0048750Y0070550D01*
X0049250Y0070050D01*
X0049250Y0068596D01*
X0049423Y0068423D01*
X0047750Y0066750D01*
X0047750Y0063846D01*
X0048350Y0063346D01*
X0049423Y0062273D01*
X0049423Y0059923D01*
X0047750Y0058250D01*
X0047750Y0054150D01*
X0047600Y0054000D01*
X0047750Y0053850D01*
X0047750Y0051423D01*
X0049423Y0051423D01*
X0047750Y0051423D02*
X0047750Y0045550D01*
X0047800Y0045500D01*
X0047800Y0042923D01*
X0049423Y0042923D01*
X0049500Y0043000D01*
X0047750Y0045450D02*
X0047800Y0045500D01*
X0047750Y0045450D02*
X0047750Y0038346D01*
X0048350Y0037846D01*
X0048354Y0037846D01*
X0048850Y0037350D01*
X0048850Y0034996D01*
X0049423Y0034423D01*
X0047750Y0032750D01*
X0047750Y0029750D01*
X0048250Y0029250D01*
X0048250Y0027096D01*
X0049423Y0025923D01*
X0050500Y0027750D02*
X0050500Y0029250D01*
X0051250Y0030000D01*
X0051250Y0031250D01*
X0051077Y0031077D01*
X0049423Y0031077D01*
X0051250Y0031250D02*
X0051250Y0037250D01*
X0050500Y0037250D01*
X0051250Y0037250D02*
X0051250Y0039577D01*
X0049423Y0039577D01*
X0049250Y0039404D01*
X0046077Y0039577D02*
X0044700Y0038200D01*
X0044700Y0037350D01*
X0043750Y0035900D02*
X0042750Y0037000D01*
X0042750Y0039750D01*
X0043750Y0040750D01*
X0043750Y0042923D01*
X0046077Y0042923D01*
X0043750Y0042923D02*
X0043750Y0051423D01*
X0043750Y0053250D01*
X0043250Y0053750D01*
X0043250Y0055750D01*
X0043750Y0056250D01*
X0043750Y0059923D01*
X0043750Y0061500D01*
X0042750Y0062500D01*
X0042750Y0065250D01*
X0043750Y0066250D01*
X0043750Y0068423D01*
X0043750Y0069950D01*
X0042750Y0070950D01*
X0042750Y0074000D01*
X0043750Y0075000D01*
X0043750Y0076923D01*
X0046077Y0076923D01*
X0043750Y0076923D02*
X0043750Y0085250D01*
X0045904Y0085250D01*
X0046077Y0085423D01*
X0047750Y0083750D02*
X0049423Y0085423D01*
X0052850Y0083696D02*
X0052850Y0081150D01*
X0053250Y0080450D01*
X0053250Y0079250D01*
X0052250Y0078250D01*
X0052250Y0076923D01*
X0054577Y0076923D01*
X0054000Y0077500D01*
X0052250Y0076923D02*
X0052250Y0074250D01*
X0051250Y0073250D01*
X0051250Y0071000D01*
X0052250Y0070000D01*
X0052250Y0068423D01*
X0052250Y0068250D01*
X0052423Y0068423D01*
X0054577Y0068423D01*
X0052250Y0068423D01*
X0052250Y0068250D02*
X0052250Y0060000D01*
X0052327Y0059923D01*
X0054577Y0059923D01*
X0054173Y0059923D01*
X0054423Y0059923D02*
X0054577Y0059923D01*
X0056250Y0059923D02*
X0057923Y0059923D01*
X0057923Y0056577D02*
X0059750Y0056577D01*
X0063000Y0056500D02*
X0063000Y0054300D01*
X0062750Y0054050D01*
X0063000Y0056500D02*
X0063077Y0056577D01*
X0066423Y0059923D02*
X0068250Y0059923D01*
X0069250Y0059923D02*
X0071577Y0059923D01*
X0071577Y0062750D02*
X0071550Y0062750D01*
X0071577Y0062750D02*
X0071577Y0065077D01*
X0074923Y0065077D02*
X0074923Y0063077D01*
X0074950Y0062750D01*
X0074923Y0056577D02*
X0074950Y0056550D01*
X0074950Y0054250D01*
X0071550Y0054250D02*
X0071500Y0056500D01*
X0071577Y0056577D01*
X0071577Y0051423D02*
X0069250Y0051423D01*
X0068250Y0051423D02*
X0066423Y0051423D01*
X0063077Y0051423D02*
X0060750Y0051423D01*
X0063077Y0048077D02*
X0063000Y0048000D01*
X0063000Y0045950D01*
X0062450Y0045400D01*
X0063077Y0042923D02*
X0060750Y0042923D01*
X0055250Y0045250D02*
X0054577Y0045923D01*
X0054577Y0048077D01*
X0052750Y0046750D02*
X0052750Y0051673D01*
X0052750Y0057000D01*
X0052250Y0057500D01*
X0052250Y0060000D01*
X0049423Y0059923D02*
X0049423Y0060577D01*
X0047050Y0062250D02*
X0046450Y0062850D01*
X0046450Y0064650D01*
X0046250Y0064750D01*
X0046000Y0064750D01*
X0046077Y0065077D01*
X0042750Y0067000D02*
X0042750Y0069500D01*
X0041500Y0070750D01*
X0041500Y0073000D01*
X0040923Y0073577D01*
X0040923Y0073923D01*
X0042750Y0075750D01*
X0042750Y0080250D01*
X0040923Y0082077D01*
X0039250Y0083750D02*
X0039250Y0076923D01*
X0040923Y0076923D01*
X0039250Y0076923D02*
X0039250Y0068423D01*
X0040923Y0068423D01*
X0039250Y0068423D02*
X0039250Y0059923D01*
X0040923Y0059923D01*
X0040750Y0060096D01*
X0039250Y0059923D02*
X0039250Y0054250D01*
X0039500Y0054000D01*
X0039250Y0054000D01*
X0039250Y0051423D01*
X0040923Y0051423D01*
X0039250Y0051423D02*
X0039250Y0042923D01*
X0040923Y0042923D01*
X0039250Y0042923D02*
X0039250Y0034423D01*
X0040923Y0034423D01*
X0040923Y0034577D01*
X0039250Y0034423D02*
X0039250Y0029750D01*
X0040923Y0028077D01*
X0040923Y0025923D01*
X0042750Y0024750D02*
X0044250Y0024750D01*
X0044750Y0024250D01*
X0047750Y0024250D01*
X0049423Y0022577D01*
X0051250Y0024404D01*
X0051250Y0027000D01*
X0050500Y0027750D01*
X0052250Y0028500D02*
X0052250Y0034423D01*
X0054577Y0034423D01*
X0052250Y0034423D02*
X0052250Y0042923D01*
X0053250Y0043923D01*
X0053250Y0046250D01*
X0052750Y0046750D01*
X0052250Y0042923D02*
X0054577Y0042923D01*
X0054577Y0051423D02*
X0054327Y0051673D01*
X0052750Y0051673D01*
X0054400Y0054250D02*
X0054500Y0054350D01*
X0054500Y0057000D01*
X0054577Y0056577D01*
X0054250Y0062750D02*
X0054500Y0063000D01*
X0054500Y0065000D01*
X0054577Y0065077D01*
X0053500Y0071250D02*
X0054577Y0072327D01*
X0054577Y0073577D01*
X0057827Y0073327D02*
X0057923Y0073577D01*
X0063000Y0073500D02*
X0063000Y0071500D01*
X0063450Y0071000D01*
X0063077Y0068423D02*
X0060750Y0068423D01*
X0063077Y0065077D02*
X0063077Y0063077D01*
X0062500Y0062500D01*
X0063000Y0064750D02*
X0063077Y0065077D01*
X0069250Y0068400D02*
X0069250Y0068423D01*
X0069250Y0076923D01*
X0074923Y0073808D02*
X0074923Y0073577D01*
X0074923Y0071577D01*
X0074950Y0071250D01*
X0074923Y0073577D02*
X0075250Y0073904D01*
X0075500Y0074250D01*
X0075426Y0074061D01*
X0074923Y0073808D01*
X0063077Y0073577D02*
X0063000Y0073500D01*
X0063150Y0079650D02*
X0063000Y0079800D01*
X0063000Y0082000D01*
X0063077Y0082077D01*
X0062923Y0085250D02*
X0062923Y0085423D01*
X0057923Y0085423D02*
X0056250Y0083750D01*
X0056250Y0080650D01*
X0054950Y0079250D02*
X0054500Y0079700D01*
X0054500Y0082000D01*
X0054577Y0082077D01*
X0052850Y0083696D02*
X0054577Y0085423D01*
X0053923Y0085173D01*
X0057923Y0085423D02*
X0057923Y0084923D01*
X0057923Y0085423D02*
X0057923Y0085577D01*
X0046077Y0073577D02*
X0046500Y0073154D01*
X0046500Y0071300D01*
X0047050Y0070750D01*
X0046077Y0068423D02*
X0043750Y0068423D01*
X0042750Y0067000D02*
X0040923Y0065173D01*
X0040923Y0065077D01*
X0040923Y0062827D01*
X0042750Y0061000D01*
X0042750Y0058750D01*
X0040923Y0056923D01*
X0040923Y0056577D01*
X0041500Y0056000D01*
X0041500Y0054000D01*
X0042750Y0052750D01*
X0042750Y0048250D01*
X0041096Y0048250D01*
X0040923Y0048077D01*
X0040750Y0048250D01*
X0042750Y0048250D02*
X0042750Y0041577D01*
X0040923Y0039577D01*
X0041500Y0039000D01*
X0041500Y0036750D01*
X0042750Y0035500D01*
X0042750Y0031077D01*
X0040923Y0031077D01*
X0042750Y0031077D02*
X0042750Y0024750D01*
X0040577Y0022577D01*
X0040923Y0022577D01*
X0043500Y0022750D02*
X0046000Y0022750D01*
X0046077Y0022423D01*
X0046077Y0022577D01*
X0045654Y0023000D01*
X0045654Y0025750D02*
X0045750Y0026250D01*
X0043750Y0028250D01*
X0043750Y0034423D01*
X0043750Y0035900D01*
X0043750Y0034423D02*
X0046077Y0034423D01*
X0048923Y0034827D02*
X0049423Y0034423D01*
X0049500Y0034750D02*
X0048923Y0034827D01*
X0046077Y0031077D02*
X0046250Y0030904D01*
X0046250Y0028750D01*
X0046077Y0025923D02*
X0045827Y0025923D01*
X0045654Y0025750D01*
X0049423Y0022923D02*
X0049423Y0022577D01*
X0049423Y0022423D01*
X0052000Y0022750D02*
X0052173Y0022577D01*
X0054577Y0022577D01*
X0054577Y0025923D02*
X0054327Y0025923D01*
X0054327Y0026173D01*
X0052250Y0028500D01*
X0054500Y0028750D02*
X0054750Y0028500D01*
X0054500Y0028750D02*
X0054500Y0031000D01*
X0054577Y0031077D01*
X0041250Y0039250D02*
X0040923Y0039577D01*
X0040750Y0039750D01*
X0037577Y0039577D02*
X0037577Y0038327D01*
X0036500Y0037250D01*
X0035250Y0036000D02*
X0034750Y0036500D01*
X0034750Y0038750D01*
X0035250Y0039500D01*
X0035250Y0042923D01*
X0037577Y0042923D01*
X0037500Y0045750D02*
X0037577Y0045827D01*
X0037577Y0048077D01*
X0037577Y0051423D02*
X0035250Y0051423D01*
X0035250Y0042923D01*
X0034250Y0041404D02*
X0032423Y0039577D01*
X0032750Y0039250D01*
X0032750Y0037000D01*
X0034250Y0035500D01*
X0034250Y0031250D01*
X0034077Y0031077D01*
X0032423Y0031077D01*
X0034250Y0031250D02*
X0034250Y0026500D01*
X0035250Y0025500D01*
X0035000Y0025500D01*
X0032423Y0022923D01*
X0032423Y0022577D01*
X0032750Y0022750D01*
X0035250Y0022750D02*
X0037404Y0022750D01*
X0037577Y0022577D01*
X0037250Y0025750D02*
X0036827Y0026423D01*
X0037577Y0025923D01*
X0036827Y0026423D02*
X0035250Y0028000D01*
X0035250Y0034423D01*
X0035250Y0036000D01*
X0035250Y0034423D02*
X0037577Y0034423D01*
X0037577Y0031077D02*
X0037500Y0031000D01*
X0037500Y0028750D01*
X0032423Y0028077D02*
X0032423Y0025923D01*
X0032000Y0026346D01*
X0032423Y0028077D02*
X0032000Y0028750D01*
X0030750Y0029750D01*
X0030750Y0034423D01*
X0032423Y0034423D01*
X0031923Y0034923D01*
X0030750Y0034423D02*
X0030750Y0042750D01*
X0030923Y0042923D01*
X0032423Y0042923D01*
X0030750Y0042750D02*
X0030750Y0049750D01*
X0032423Y0051423D01*
X0031923Y0051923D01*
X0031923Y0054177D01*
X0030750Y0055350D01*
X0030750Y0059923D01*
X0032423Y0059923D01*
X0030750Y0059923D02*
X0030750Y0068423D01*
X0032423Y0068423D01*
X0030750Y0068423D02*
X0030750Y0076923D01*
X0032423Y0076923D01*
X0032250Y0077096D01*
X0030750Y0076923D02*
X0030750Y0083750D01*
X0031823Y0084823D01*
X0032423Y0084823D01*
X0032423Y0085423D01*
X0032423Y0082077D02*
X0034250Y0080250D01*
X0034250Y0073577D01*
X0032423Y0073577D01*
X0034250Y0073577D02*
X0034250Y0065077D01*
X0032423Y0065077D01*
X0034250Y0065077D02*
X0034250Y0056577D01*
X0032423Y0056577D01*
X0034250Y0056577D02*
X0034250Y0048077D01*
X0032423Y0048077D01*
X0034250Y0048077D02*
X0034250Y0041404D01*
X0029077Y0042423D02*
X0029077Y0042923D01*
X0028327Y0042923D01*
X0026250Y0045000D01*
X0026250Y0046500D01*
X0026750Y0047000D01*
X0026750Y0051423D01*
X0029077Y0051423D01*
X0026750Y0051423D02*
X0026750Y0052850D01*
X0026000Y0053700D01*
X0026000Y0055200D01*
X0026750Y0055950D01*
X0026750Y0059923D01*
X0029077Y0059923D01*
X0029000Y0062250D02*
X0029000Y0064750D01*
X0029077Y0065077D01*
X0025750Y0065077D02*
X0023923Y0065077D01*
X0024096Y0065250D01*
X0025750Y0065250D01*
X0025750Y0073577D01*
X0023923Y0073577D01*
X0025750Y0073577D02*
X0025750Y0080000D01*
X0024500Y0081250D01*
X0024500Y0081500D01*
X0023923Y0082077D01*
X0022250Y0083750D02*
X0022250Y0076923D01*
X0023923Y0076923D01*
X0022250Y0076923D02*
X0022250Y0068423D01*
X0023923Y0068423D01*
X0022250Y0068423D02*
X0022250Y0059923D01*
X0023923Y0059923D01*
X0022250Y0059923D02*
X0022250Y0055250D01*
X0021650Y0054650D01*
X0021650Y0053296D01*
X0022250Y0052696D01*
X0022250Y0051250D01*
X0022423Y0051423D01*
X0023923Y0051423D01*
X0022250Y0051250D02*
X0022250Y0042750D01*
X0022423Y0042923D01*
X0023923Y0042923D01*
X0024250Y0043250D01*
X0025250Y0044500D02*
X0026500Y0043250D01*
X0026500Y0042250D01*
X0025750Y0041500D01*
X0025750Y0039750D01*
X0024500Y0039750D01*
X0024250Y0040000D01*
X0024077Y0039577D01*
X0023923Y0039577D01*
X0025750Y0039750D02*
X0025750Y0032904D01*
X0023923Y0031077D01*
X0023923Y0028423D01*
X0023750Y0028250D01*
X0022000Y0027423D02*
X0022000Y0029500D01*
X0022250Y0029750D01*
X0022250Y0034423D01*
X0023923Y0034423D01*
X0023500Y0033846D01*
X0022250Y0034423D02*
X0022250Y0035250D01*
X0023750Y0036750D01*
X0023923Y0036577D01*
X0023750Y0036750D02*
X0022250Y0038250D01*
X0022250Y0042750D01*
X0020577Y0042923D02*
X0020250Y0043250D01*
X0019750Y0042750D01*
X0018250Y0042750D01*
X0018250Y0038750D01*
X0019500Y0037500D01*
X0019500Y0036000D01*
X0018250Y0034750D01*
X0018250Y0034423D01*
X0018250Y0029750D01*
X0017750Y0029250D01*
X0018250Y0028750D01*
X0018250Y0028000D01*
X0020327Y0025923D01*
X0020577Y0025923D01*
X0020577Y0024250D02*
X0020577Y0022577D01*
X0020577Y0024250D02*
X0013750Y0024250D01*
X0012500Y0023000D01*
X0012250Y0023000D01*
X0012077Y0022827D01*
X0012077Y0022577D01*
X0012250Y0023000D02*
X0011654Y0023000D01*
X0012077Y0025750D02*
X0012077Y0025923D01*
X0013750Y0027596D01*
X0013750Y0028250D01*
X0015500Y0028250D01*
X0013750Y0028250D02*
X0013750Y0034423D01*
X0013750Y0042923D01*
X0013750Y0051423D01*
X0013750Y0059923D01*
X0012077Y0059923D01*
X0011750Y0059596D01*
X0013750Y0059923D02*
X0013750Y0068423D01*
X0012077Y0068423D01*
X0011750Y0068096D01*
X0013750Y0068423D02*
X0013750Y0076750D01*
X0013577Y0076923D01*
X0012077Y0076923D01*
X0011750Y0076596D01*
X0013750Y0076750D02*
X0013750Y0083750D01*
X0012077Y0085423D01*
X0012000Y0085500D01*
X0011750Y0085250D01*
X0012077Y0082077D02*
X0012077Y0079750D01*
X0012050Y0079750D01*
X0012250Y0082000D02*
X0012077Y0082077D01*
X0015423Y0082077D02*
X0016923Y0082077D01*
X0017250Y0081750D01*
X0017250Y0073750D01*
X0015250Y0073750D01*
X0015423Y0073577D01*
X0017250Y0073750D02*
X0017250Y0065077D01*
X0017250Y0056577D01*
X0015423Y0056577D01*
X0017250Y0056577D02*
X0017250Y0050077D01*
X0015750Y0048577D01*
X0015750Y0047750D01*
X0015750Y0047500D01*
X0017250Y0046000D01*
X0017250Y0039750D01*
X0017077Y0039577D01*
X0015423Y0039577D01*
X0017250Y0039750D02*
X0017250Y0037250D01*
X0017750Y0036750D01*
X0017250Y0036250D01*
X0017250Y0031077D01*
X0015423Y0031077D01*
X0015423Y0034423D02*
X0015250Y0034596D01*
X0015423Y0034423D02*
X0014750Y0035096D01*
X0015423Y0034423D02*
X0015450Y0034450D01*
X0015450Y0036750D01*
X0013750Y0034423D02*
X0012077Y0034423D01*
X0011750Y0034423D01*
X0012050Y0037250D02*
X0012050Y0039550D01*
X0012077Y0039577D01*
X0012077Y0042923D02*
X0011750Y0042923D01*
X0012077Y0042923D02*
X0013750Y0042923D01*
X0015250Y0043096D02*
X0015423Y0042923D01*
X0015450Y0042950D01*
X0015450Y0045250D01*
X0015750Y0047750D02*
X0015423Y0048077D01*
X0018250Y0048250D02*
X0018250Y0051423D01*
X0018250Y0059923D01*
X0018250Y0068423D01*
X0020577Y0068423D01*
X0018250Y0068423D02*
X0018250Y0076923D01*
X0020577Y0076923D01*
X0018250Y0076923D02*
X0018250Y0083096D01*
X0020577Y0085423D01*
X0020423Y0085423D02*
X0020423Y0085923D01*
X0017750Y0085250D02*
X0015596Y0085250D01*
X0015423Y0085423D01*
X0020500Y0082000D02*
X0020500Y0079750D01*
X0020500Y0082000D02*
X0020577Y0082077D01*
X0022250Y0083750D02*
X0023923Y0085423D01*
X0024250Y0085250D01*
X0026250Y0085250D01*
X0027923Y0084423D02*
X0026750Y0083250D01*
X0026750Y0076923D01*
X0029077Y0076923D01*
X0026750Y0076923D02*
X0026750Y0068423D01*
X0029077Y0068423D01*
X0029077Y0071000D02*
X0029000Y0071000D01*
X0029077Y0071000D02*
X0029077Y0073577D01*
X0026750Y0068423D02*
X0026750Y0059923D01*
X0025750Y0058400D02*
X0025746Y0058400D01*
X0023923Y0056577D01*
X0025000Y0055500D01*
X0025000Y0053300D01*
X0025750Y0052350D01*
X0025750Y0048077D01*
X0023923Y0048077D01*
X0025250Y0047000D02*
X0025250Y0044500D01*
X0025250Y0047000D02*
X0025750Y0047500D01*
X0025750Y0048077D01*
X0028000Y0045750D02*
X0029077Y0046827D01*
X0029077Y0048077D01*
X0028827Y0043173D02*
X0029077Y0042923D01*
X0029077Y0042423D02*
X0027000Y0040346D01*
X0027000Y0034423D01*
X0029077Y0034423D01*
X0027000Y0034423D02*
X0027000Y0031750D01*
X0026500Y0031250D01*
X0026500Y0030750D01*
X0025500Y0029750D01*
X0025500Y0027146D01*
X0025604Y0026896D01*
X0026750Y0025750D01*
X0028904Y0025750D01*
X0029077Y0025923D01*
X0028827Y0025923D01*
X0029077Y0024250D02*
X0029077Y0022577D01*
X0029077Y0024250D02*
X0030250Y0024250D01*
X0030750Y0024750D01*
X0030750Y0027250D01*
X0029750Y0028250D01*
X0027150Y0027750D02*
X0027150Y0029150D01*
X0029077Y0031077D01*
X0024077Y0031077D02*
X0023923Y0031077D01*
X0022000Y0027423D02*
X0023923Y0025923D01*
X0023750Y0026096D01*
X0023923Y0022923D02*
X0023923Y0022577D01*
X0023923Y0022550D01*
X0026250Y0022550D01*
X0024250Y0022250D02*
X0023923Y0022577D01*
X0020577Y0024250D02*
X0029077Y0024250D01*
X0020500Y0028750D02*
X0020250Y0028500D01*
X0020500Y0028750D02*
X0020500Y0031000D01*
X0020577Y0031077D01*
X0020577Y0034423D02*
X0018250Y0034423D01*
X0021200Y0036950D02*
X0020500Y0037650D01*
X0020500Y0039500D01*
X0020577Y0039577D01*
X0018250Y0042750D02*
X0018250Y0048250D01*
X0020500Y0048000D02*
X0020500Y0045750D01*
X0020500Y0048000D02*
X0020577Y0048077D01*
X0020577Y0051423D02*
X0018250Y0051423D01*
X0019250Y0051423D02*
X0020577Y0051423D01*
X0020000Y0054250D02*
X0020000Y0056000D01*
X0020577Y0056577D01*
X0020577Y0059923D02*
X0018250Y0059923D01*
X0020100Y0062250D02*
X0020577Y0062727D01*
X0020577Y0065077D01*
X0017250Y0065077D02*
X0015423Y0065077D01*
X0015450Y0062250D02*
X0015423Y0062223D01*
X0015423Y0059923D01*
X0012050Y0062750D02*
X0012050Y0065050D01*
X0012077Y0065077D01*
X0015423Y0068423D02*
X0015250Y0068596D01*
X0015423Y0068423D02*
X0015423Y0070750D01*
X0015450Y0070750D01*
X0012077Y0071250D02*
X0012077Y0073577D01*
X0012250Y0073500D01*
X0012077Y0071250D02*
X0012050Y0071250D01*
X0015423Y0076923D02*
X0015423Y0079250D01*
X0015450Y0079250D01*
X0015250Y0077096D02*
X0015423Y0076923D01*
X0020500Y0073500D02*
X0020500Y0071000D01*
X0020250Y0071000D01*
X0020500Y0073500D02*
X0020577Y0073577D01*
X0025750Y0065077D02*
X0025750Y0058400D01*
X0027650Y0055150D02*
X0027650Y0054350D01*
X0027650Y0055150D02*
X0029077Y0056577D01*
X0035250Y0059923D02*
X0035250Y0051423D01*
X0037000Y0054000D02*
X0037577Y0054577D01*
X0037577Y0056577D01*
X0037577Y0059923D02*
X0035250Y0059923D01*
X0035250Y0068423D01*
X0035250Y0076923D01*
X0037577Y0076923D01*
X0035250Y0076923D02*
X0035250Y0083250D01*
X0037423Y0085423D01*
X0039250Y0083750D02*
X0040923Y0085423D01*
X0037577Y0082077D02*
X0037577Y0080077D01*
X0037250Y0079750D01*
X0037577Y0073577D02*
X0037250Y0073500D01*
X0037250Y0071000D01*
X0037577Y0068423D02*
X0035250Y0068423D01*
X0037577Y0065077D02*
X0037500Y0065000D01*
X0037500Y0062750D01*
X0040923Y0065077D02*
X0041077Y0065077D01*
X0043750Y0059923D02*
X0046077Y0059923D01*
X0046077Y0056577D02*
X0046000Y0056500D01*
X0046000Y0054750D01*
X0045250Y0054000D01*
X0047600Y0054000D02*
X0047600Y0053246D01*
X0046077Y0051423D02*
X0043750Y0051423D01*
X0046077Y0048077D02*
X0046077Y0046127D01*
X0045450Y0045500D01*
X0029077Y0039577D02*
X0029000Y0039500D01*
X0029000Y0037250D01*
X0017950Y0025950D02*
X0017923Y0025923D01*
X0015423Y0025923D01*
X0015450Y0025950D01*
X0015423Y0022577D02*
X0018077Y0022577D01*
X0018000Y0022600D01*
X0012077Y0025923D02*
X0011827Y0025923D01*
X0012050Y0028750D02*
X0012050Y0031050D01*
X0012077Y0031077D01*
X0012050Y0045750D02*
X0012050Y0047450D01*
X0011750Y0047750D01*
X0012077Y0048077D01*
X0012077Y0051423D02*
X0011750Y0051423D01*
X0012077Y0051423D02*
X0013750Y0051423D01*
X0015423Y0051423D02*
X0015450Y0051450D01*
X0015450Y0053750D01*
X0012050Y0054250D02*
X0012050Y0056550D01*
X0012077Y0056577D01*
X0028750Y0079750D02*
X0028750Y0082000D01*
X0029077Y0082077D01*
X0028750Y0082000D02*
X0029000Y0082700D01*
X0027923Y0084423D02*
X0029077Y0085423D01*
X0046000Y0082000D02*
X0046000Y0079750D01*
X0045750Y0079750D01*
X0046000Y0082000D02*
X0046077Y0082077D01*
X0071577Y0048077D02*
X0070300Y0046800D01*
X0070300Y0045250D01*
X0071173Y0042923D02*
X0071000Y0042250D01*
X0069250Y0042250D01*
X0071173Y0042923D02*
X0071577Y0042923D01*
X0074950Y0045750D02*
X0074950Y0048050D01*
X0074923Y0048077D01*
X0075096Y0048250D01*
X0071577Y0048077D02*
X0071500Y0048000D01*
X0071577Y0039577D02*
X0071250Y0039250D01*
X0071250Y0037250D01*
X0071500Y0039500D02*
X0071577Y0039577D01*
X0074923Y0039577D02*
X0074923Y0037277D01*
X0074950Y0037250D01*
D12*
X0074950Y0037250D03*
X0071250Y0037250D03*
X0069150Y0034450D03*
X0066450Y0036950D03*
X0062750Y0037000D03*
X0057096Y0037000D03*
X0054500Y0037000D03*
X0050500Y0037250D03*
X0046950Y0036800D03*
X0044700Y0037350D03*
X0045450Y0045500D03*
X0047800Y0045500D03*
X0050150Y0045500D03*
X0055250Y0045250D03*
X0062450Y0045400D03*
X0065950Y0045450D03*
X0070300Y0045250D03*
X0072550Y0045750D03*
X0074950Y0045750D03*
X0074950Y0054250D03*
X0071550Y0054250D03*
X0071550Y0062750D03*
X0074950Y0062750D03*
X0069200Y0068450D03*
X0071550Y0070750D03*
X0074950Y0071250D03*
X0074950Y0079750D03*
X0072650Y0079750D03*
X0070350Y0079250D03*
X0068750Y0085250D03*
X0063150Y0079650D03*
X0059850Y0080150D03*
X0054950Y0079250D03*
X0051600Y0080000D03*
X0045750Y0079750D03*
X0044750Y0071300D03*
X0047050Y0070750D03*
X0053500Y0071250D03*
X0059950Y0071550D03*
X0063450Y0071000D03*
X0062500Y0062500D03*
X0062750Y0054050D03*
X0054400Y0054250D03*
X0049950Y0054050D03*
X0047600Y0054000D03*
X0045250Y0054000D03*
X0043750Y0056250D03*
X0039500Y0054000D03*
X0037000Y0054000D03*
X0029950Y0053750D03*
X0027650Y0054350D03*
X0023350Y0053950D03*
X0020000Y0054250D03*
X0015450Y0053750D03*
X0012050Y0054250D03*
X0018250Y0048250D03*
X0020500Y0045750D03*
X0015450Y0045250D03*
X0012050Y0045750D03*
X0012050Y0037250D03*
X0015450Y0036750D03*
X0017750Y0036750D03*
X0021200Y0036950D03*
X0023750Y0036750D03*
X0026500Y0031250D03*
X0027150Y0027750D03*
X0029750Y0028250D03*
X0032000Y0028750D03*
X0035250Y0025500D03*
X0035250Y0022750D03*
X0037500Y0028750D03*
X0043500Y0022750D03*
X0046250Y0028750D03*
X0052250Y0028500D03*
X0054750Y0028500D03*
X0058250Y0028750D03*
X0060600Y0028750D03*
X0062950Y0028750D03*
X0066250Y0028250D03*
X0069250Y0025150D03*
X0069250Y0022750D03*
X0071500Y0028750D03*
X0074950Y0028750D03*
X0060750Y0022750D03*
X0052000Y0022750D03*
X0036500Y0037250D03*
X0034750Y0038750D03*
X0029000Y0037250D03*
X0026500Y0042250D03*
X0028000Y0045750D03*
X0037500Y0045750D03*
X0041000Y0045500D03*
X0047050Y0062250D03*
X0044800Y0062850D03*
X0037500Y0062750D03*
X0037250Y0071000D03*
X0029000Y0071000D03*
X0024000Y0071000D03*
X0020250Y0071000D03*
X0015450Y0070750D03*
X0012050Y0071250D03*
X0012050Y0079750D03*
X0015450Y0079250D03*
X0020500Y0079750D03*
X0017750Y0085250D03*
X0026250Y0085250D03*
X0028750Y0079750D03*
X0037250Y0079750D03*
X0024000Y0062500D03*
X0020100Y0062250D03*
X0015450Y0062250D03*
X0012050Y0062750D03*
X0029000Y0062250D03*
X0054250Y0062750D03*
X0023750Y0028250D03*
X0020250Y0028500D03*
X0017750Y0029250D03*
X0015500Y0028250D03*
X0017950Y0025950D03*
X0018000Y0022600D03*
X0012050Y0028750D03*
X0026250Y0022550D03*
D13*
X0028923Y0085423D02*
X0029077Y0085423D01*
X0037423Y0085423D02*
X0037577Y0085423D01*
X0045923Y0085423D02*
X0046077Y0085423D01*
X0054423Y0085423D02*
X0054577Y0085423D01*
X0062923Y0085423D02*
X0063077Y0085423D01*
X0071423Y0085423D02*
X0071577Y0085423D01*
X0020577Y0085423D02*
X0020423Y0085423D01*
X0012077Y0085423D02*
X0011923Y0085423D01*
M02*
