G75*
%MOIN*%
%OFA0B0*%
%FSLAX25Y25*%
%IPPOS*%
%LPD*%
%AMOC8*
5,1,8,0,0,1.08239X$1,22.5*
%
%ADD10C,0.00200*%
%ADD11C,0.01000*%
%ADD12C,0.00500*%
%ADD13R,0.22500X0.23000*%
%ADD14R,0.01181X0.01181*%
D10*
X0027762Y0031350D02*
X0027762Y0032818D01*
X0028496Y0033552D01*
X0029230Y0032818D01*
X0029230Y0031350D01*
X0029972Y0031717D02*
X0029972Y0033185D01*
X0030339Y0033552D01*
X0031440Y0033552D01*
X0031440Y0031350D01*
X0030339Y0031350D01*
X0029972Y0031717D01*
X0029230Y0032451D02*
X0027762Y0032451D01*
X0032182Y0032084D02*
X0032182Y0031717D01*
X0032549Y0031350D01*
X0033283Y0031350D01*
X0033650Y0031717D01*
X0033283Y0032451D02*
X0032549Y0032451D01*
X0032182Y0032084D01*
X0033283Y0032451D02*
X0033650Y0032818D01*
X0033650Y0033185D01*
X0033283Y0033552D01*
X0032549Y0033552D01*
X0032182Y0033185D01*
X0030150Y0038850D02*
X0030150Y0041052D01*
X0028682Y0038850D01*
X0028682Y0041052D01*
X0027940Y0040685D02*
X0027940Y0039217D01*
X0027573Y0038850D01*
X0026839Y0038850D01*
X0026472Y0039217D01*
X0025730Y0039951D02*
X0024262Y0039951D01*
X0023520Y0040318D02*
X0023153Y0039951D01*
X0022419Y0039951D01*
X0022052Y0039584D01*
X0022052Y0039217D01*
X0022419Y0038850D01*
X0023153Y0038850D01*
X0023520Y0039217D01*
X0023520Y0040318D02*
X0023520Y0040685D01*
X0023153Y0041052D01*
X0022419Y0041052D01*
X0022052Y0040685D01*
X0021310Y0040318D02*
X0020577Y0041052D01*
X0019843Y0040318D01*
X0019843Y0038850D01*
X0019843Y0039951D02*
X0021310Y0039951D01*
X0021310Y0040318D02*
X0021310Y0038850D01*
X0021339Y0041850D02*
X0020972Y0042217D01*
X0021339Y0041850D02*
X0022073Y0041850D01*
X0022440Y0042217D01*
X0022440Y0043685D01*
X0022073Y0044052D01*
X0021339Y0044052D01*
X0020972Y0043685D01*
X0023182Y0043685D02*
X0023549Y0044052D01*
X0024283Y0044052D01*
X0024650Y0043685D01*
X0024650Y0042217D01*
X0024283Y0041850D01*
X0023549Y0041850D01*
X0023182Y0042217D01*
X0026472Y0040685D02*
X0026839Y0041052D01*
X0027573Y0041052D01*
X0027940Y0040685D01*
X0020416Y0049850D02*
X0019682Y0050584D01*
X0019682Y0052052D01*
X0018940Y0050951D02*
X0018940Y0050217D01*
X0018573Y0049850D01*
X0017472Y0049850D01*
X0016730Y0050217D02*
X0016730Y0050951D01*
X0016363Y0051318D01*
X0015262Y0051318D01*
X0015262Y0049850D02*
X0016363Y0049850D01*
X0016730Y0050217D01*
X0017472Y0051318D02*
X0018573Y0051318D01*
X0018940Y0050951D01*
X0020416Y0049850D02*
X0021150Y0050584D01*
X0021150Y0052052D01*
X0018020Y0044052D02*
X0016919Y0044052D01*
X0016552Y0043685D01*
X0016552Y0043318D01*
X0016919Y0042951D01*
X0018020Y0042951D01*
X0016919Y0042951D02*
X0016552Y0042584D01*
X0016552Y0042217D01*
X0016919Y0041850D01*
X0018020Y0041850D01*
X0018020Y0044052D01*
X0015810Y0044052D02*
X0015810Y0043685D01*
X0015077Y0042951D01*
X0015077Y0041850D01*
X0015790Y0041052D02*
X0016891Y0039951D01*
X0015423Y0039951D01*
X0014681Y0039217D02*
X0014681Y0038850D01*
X0014314Y0038850D01*
X0014314Y0039217D01*
X0014681Y0039217D01*
X0013576Y0039217D02*
X0013576Y0040685D01*
X0013209Y0041052D01*
X0012475Y0041052D01*
X0012108Y0040685D01*
X0013576Y0039217D01*
X0013209Y0038850D01*
X0012475Y0038850D01*
X0012108Y0039217D01*
X0012108Y0040685D01*
X0012133Y0042951D02*
X0013601Y0042951D01*
X0014343Y0043685D02*
X0014343Y0044052D01*
X0014343Y0043685D02*
X0015077Y0042951D01*
X0015790Y0041052D02*
X0015790Y0038850D01*
X0037762Y0024350D02*
X0039230Y0024350D01*
X0039230Y0026552D01*
X0039972Y0026185D02*
X0040339Y0026552D01*
X0041073Y0026552D01*
X0041440Y0026185D01*
X0041440Y0024717D01*
X0041073Y0024350D01*
X0040339Y0024350D01*
X0039972Y0024717D01*
X0042182Y0024717D02*
X0042549Y0024350D01*
X0043283Y0024350D01*
X0043650Y0024717D01*
X0043283Y0025451D02*
X0042549Y0025451D01*
X0042182Y0025084D01*
X0042182Y0024717D01*
X0043283Y0025451D02*
X0043650Y0025818D01*
X0043650Y0026185D01*
X0043283Y0026552D01*
X0042549Y0026552D01*
X0042182Y0026185D01*
X0047262Y0026318D02*
X0048363Y0026318D01*
X0048730Y0025951D01*
X0048730Y0025217D01*
X0048363Y0024850D01*
X0047262Y0024850D01*
X0049472Y0024850D02*
X0050573Y0024850D01*
X0050940Y0025217D01*
X0050940Y0025951D01*
X0050573Y0026318D01*
X0049472Y0026318D01*
X0051682Y0025584D02*
X0051682Y0027052D01*
X0053150Y0027052D02*
X0053150Y0025584D01*
X0052416Y0024850D01*
X0051682Y0025584D01*
X0056392Y0025317D02*
X0056392Y0026785D01*
X0056759Y0027152D01*
X0057860Y0027152D01*
X0057860Y0024950D01*
X0056759Y0024950D01*
X0056392Y0025317D01*
X0058602Y0024950D02*
X0058602Y0027152D01*
X0060070Y0027152D02*
X0058602Y0024950D01*
X0060070Y0024950D02*
X0060070Y0027152D01*
X0060812Y0026785D02*
X0061179Y0027152D01*
X0061913Y0027152D01*
X0062280Y0026785D01*
X0062280Y0025317D01*
X0061913Y0024950D01*
X0061179Y0024950D01*
X0060812Y0025317D01*
X0060812Y0026051D01*
X0061546Y0026051D01*
X0066472Y0030850D02*
X0067940Y0033052D01*
X0068682Y0032685D02*
X0068682Y0031951D01*
X0069049Y0031584D01*
X0070150Y0031584D01*
X0069416Y0031584D02*
X0068682Y0030850D01*
X0067940Y0030850D02*
X0066472Y0033052D01*
X0068682Y0032685D02*
X0069049Y0033052D01*
X0070150Y0033052D01*
X0070150Y0030850D01*
X0069892Y0039450D02*
X0070993Y0040551D01*
X0071360Y0040184D02*
X0069892Y0041652D01*
X0071360Y0041652D02*
X0071360Y0039450D01*
X0072102Y0039817D02*
X0072469Y0039450D01*
X0073203Y0039450D01*
X0073570Y0039817D01*
X0073570Y0041285D01*
X0073203Y0041652D01*
X0072469Y0041652D01*
X0072102Y0041285D01*
X0074312Y0041285D02*
X0074679Y0041652D01*
X0075413Y0041652D01*
X0075780Y0041285D01*
X0075780Y0040918D01*
X0075413Y0040551D01*
X0074679Y0040551D01*
X0074312Y0040184D01*
X0074312Y0039817D01*
X0074679Y0039450D01*
X0075413Y0039450D01*
X0075780Y0039817D01*
X0063750Y0064391D02*
X0065307Y0065948D01*
X0064528Y0066727D01*
X0064009Y0066727D01*
X0063491Y0066208D01*
X0063491Y0065689D01*
X0064269Y0064910D01*
X0063750Y0065429D02*
X0062712Y0065429D01*
X0062447Y0066214D02*
X0061928Y0066214D01*
X0061409Y0066732D01*
X0061409Y0067251D01*
X0061668Y0067511D01*
X0062187Y0067511D01*
X0062706Y0066992D01*
X0063225Y0066992D01*
X0063485Y0067251D01*
X0063485Y0067770D01*
X0062966Y0068289D01*
X0062447Y0068289D01*
X0062182Y0069074D02*
X0061144Y0070112D01*
X0061663Y0069593D02*
X0060106Y0068036D01*
X0060629Y0075350D02*
X0061363Y0075350D01*
X0061730Y0075717D01*
X0062472Y0075717D02*
X0062472Y0077185D01*
X0062839Y0077552D01*
X0063573Y0077552D01*
X0063940Y0077185D01*
X0063940Y0075717D01*
X0063573Y0075350D01*
X0062839Y0075350D01*
X0062472Y0075717D01*
X0061730Y0076818D02*
X0061363Y0076451D01*
X0060629Y0076451D01*
X0060262Y0076084D01*
X0060262Y0075717D01*
X0060629Y0075350D01*
X0059520Y0075350D02*
X0058786Y0075350D01*
X0059153Y0075350D02*
X0059153Y0077552D01*
X0059520Y0077552D02*
X0058786Y0077552D01*
X0060262Y0077185D02*
X0060629Y0077552D01*
X0061363Y0077552D01*
X0061730Y0077185D01*
X0061730Y0076818D01*
X0064682Y0077552D02*
X0064682Y0075350D01*
X0065416Y0076818D02*
X0064682Y0077552D01*
X0065416Y0076818D02*
X0066150Y0077552D01*
X0066150Y0075350D01*
X0068892Y0075817D02*
X0068892Y0077285D01*
X0069259Y0077652D01*
X0069993Y0077652D01*
X0070360Y0077285D01*
X0070360Y0075817D01*
X0069993Y0075450D01*
X0069259Y0075450D01*
X0068892Y0075817D01*
X0071102Y0075817D02*
X0071469Y0075450D01*
X0072203Y0075450D01*
X0072570Y0075817D01*
X0072203Y0076551D02*
X0071469Y0076551D01*
X0071102Y0076184D01*
X0071102Y0075817D01*
X0072203Y0076551D02*
X0072570Y0076918D01*
X0072570Y0077285D01*
X0072203Y0077652D01*
X0071469Y0077652D01*
X0071102Y0077285D01*
X0073309Y0077652D02*
X0074043Y0077652D01*
X0073676Y0077652D02*
X0073676Y0075450D01*
X0074043Y0075450D02*
X0073309Y0075450D01*
X0074785Y0075450D02*
X0074785Y0077652D01*
X0075519Y0076918D01*
X0076253Y0077652D01*
X0076253Y0075450D01*
X0044150Y0082717D02*
X0043783Y0082350D01*
X0043049Y0082350D01*
X0042682Y0082717D01*
X0042682Y0083451D01*
X0043416Y0083451D01*
X0042682Y0084185D02*
X0043049Y0084552D01*
X0043783Y0084552D01*
X0044150Y0084185D01*
X0044150Y0082717D01*
X0041940Y0082350D02*
X0041940Y0084552D01*
X0040472Y0082350D01*
X0040472Y0084552D01*
X0039730Y0084552D02*
X0038629Y0084552D01*
X0038262Y0084185D01*
X0038262Y0082717D01*
X0038629Y0082350D01*
X0039730Y0082350D01*
X0039730Y0084552D01*
X0030150Y0077052D02*
X0030150Y0075584D01*
X0029416Y0074850D01*
X0028682Y0075584D01*
X0028682Y0077052D01*
X0027940Y0075951D02*
X0027573Y0076318D01*
X0026472Y0076318D01*
X0025730Y0075951D02*
X0025730Y0075217D01*
X0025363Y0074850D01*
X0024262Y0074850D01*
X0024262Y0076318D02*
X0025363Y0076318D01*
X0025730Y0075951D01*
X0026472Y0074850D02*
X0027573Y0074850D01*
X0027940Y0075217D01*
X0027940Y0075951D01*
X0022650Y0081350D02*
X0022650Y0083552D01*
X0021916Y0082818D01*
X0021182Y0083552D01*
X0021182Y0081350D01*
X0020440Y0081717D02*
X0020073Y0082084D01*
X0018972Y0082084D01*
X0018972Y0082451D02*
X0018972Y0081350D01*
X0020073Y0081350D01*
X0020440Y0081717D01*
X0020073Y0082818D02*
X0019339Y0082818D01*
X0018972Y0082451D01*
X0018230Y0082818D02*
X0018230Y0081717D01*
X0017863Y0081350D01*
X0016762Y0081350D01*
X0016762Y0080983D02*
X0017129Y0080616D01*
X0017496Y0080616D01*
X0016762Y0080983D02*
X0016762Y0082818D01*
X0016020Y0082818D02*
X0015653Y0083185D01*
X0015653Y0083919D01*
X0014915Y0082818D02*
X0014181Y0083552D01*
X0014181Y0081350D01*
X0013448Y0081350D02*
X0014915Y0081350D01*
X0012706Y0081717D02*
X0012339Y0081350D01*
X0011605Y0081350D01*
X0011238Y0081717D01*
X0011238Y0082084D01*
X0011605Y0082451D01*
X0012706Y0082451D01*
X0012706Y0081717D01*
X0012706Y0082451D02*
X0011972Y0083185D01*
X0011238Y0083552D01*
X0011733Y0078052D02*
X0011733Y0075850D01*
X0012467Y0075850D02*
X0010999Y0075850D01*
X0011288Y0075052D02*
X0010921Y0074685D01*
X0012389Y0073217D01*
X0012022Y0072850D01*
X0011288Y0072850D01*
X0010921Y0073217D01*
X0010921Y0074685D01*
X0011288Y0075052D02*
X0012022Y0075052D01*
X0012389Y0074685D01*
X0012389Y0073217D01*
X0013131Y0074318D02*
X0013865Y0072850D01*
X0014599Y0074318D01*
X0015341Y0073951D02*
X0015341Y0073584D01*
X0016808Y0073584D01*
X0016808Y0073951D02*
X0016441Y0074318D01*
X0015707Y0074318D01*
X0015341Y0073951D01*
X0015707Y0072850D02*
X0016441Y0072850D01*
X0016808Y0073217D01*
X0016808Y0073951D01*
X0017549Y0074318D02*
X0017916Y0074318D01*
X0018650Y0073584D01*
X0018650Y0072850D02*
X0018650Y0074318D01*
X0016150Y0076217D02*
X0015783Y0075850D01*
X0014682Y0075850D01*
X0014682Y0076951D01*
X0015049Y0077318D01*
X0015783Y0077318D01*
X0015783Y0076584D02*
X0014682Y0076584D01*
X0013940Y0075850D02*
X0013206Y0075850D01*
X0013573Y0075850D02*
X0013573Y0078052D01*
X0013940Y0078052D01*
X0012467Y0077318D02*
X0011733Y0078052D01*
X0015783Y0076584D02*
X0016150Y0076217D01*
X0016070Y0068152D02*
X0014602Y0068152D01*
X0013860Y0068152D02*
X0012759Y0068152D01*
X0012392Y0067785D01*
X0012392Y0066317D01*
X0012759Y0065950D01*
X0013860Y0065950D01*
X0013860Y0068152D01*
X0015336Y0067051D02*
X0016070Y0067051D01*
X0016070Y0068152D02*
X0016070Y0065950D01*
X0014602Y0065950D01*
X0016812Y0065950D02*
X0018280Y0065950D01*
X0018280Y0068152D01*
X0019018Y0067418D02*
X0019018Y0067051D01*
X0019385Y0067051D01*
X0019385Y0067418D01*
X0019018Y0067418D01*
X0019018Y0066317D02*
X0019018Y0065950D01*
X0019385Y0065950D01*
X0019385Y0066317D01*
X0019018Y0066317D01*
X0020127Y0065950D02*
X0021595Y0065950D01*
X0020127Y0067418D01*
X0020127Y0067785D01*
X0020494Y0068152D01*
X0021228Y0068152D01*
X0021595Y0067785D01*
X0022336Y0067785D02*
X0022336Y0066317D01*
X0022703Y0065950D01*
X0023437Y0065950D01*
X0023804Y0066317D01*
X0023437Y0067051D02*
X0023804Y0067418D01*
X0023804Y0067785D01*
X0023437Y0068152D01*
X0022703Y0068152D01*
X0022336Y0067785D01*
X0022336Y0067051D02*
X0023437Y0067051D01*
X0024546Y0065950D02*
X0026014Y0065950D01*
X0025280Y0065950D02*
X0025280Y0068152D01*
X0026014Y0067418D01*
D11*
X0028250Y0069750D02*
X0010750Y0069750D01*
X0010750Y0064250D01*
X0028250Y0064250D01*
X0028250Y0069750D01*
X0032614Y0065274D02*
X0034976Y0067636D01*
X0054236Y0063108D02*
X0054238Y0063157D01*
X0054244Y0063207D01*
X0054254Y0063255D01*
X0054267Y0063303D01*
X0054285Y0063349D01*
X0054305Y0063394D01*
X0054330Y0063437D01*
X0054358Y0063478D01*
X0054389Y0063516D01*
X0054423Y0063552D01*
X0054459Y0063585D01*
X0054498Y0063616D01*
X0054540Y0063642D01*
X0054583Y0063666D01*
X0054629Y0063686D01*
X0054675Y0063703D01*
X0054723Y0063715D01*
X0054772Y0063724D01*
X0054821Y0063729D01*
X0054870Y0063730D01*
X0054920Y0063727D01*
X0054969Y0063720D01*
X0055017Y0063709D01*
X0055064Y0063695D01*
X0055110Y0063677D01*
X0055155Y0063655D01*
X0055197Y0063629D01*
X0055237Y0063601D01*
X0055275Y0063569D01*
X0055311Y0063535D01*
X0055343Y0063497D01*
X0055373Y0063457D01*
X0055399Y0063415D01*
X0055421Y0063371D01*
X0055441Y0063326D01*
X0055456Y0063279D01*
X0055468Y0063231D01*
X0055476Y0063182D01*
X0055480Y0063133D01*
X0055480Y0063083D01*
X0055476Y0063034D01*
X0055468Y0062985D01*
X0055456Y0062937D01*
X0055441Y0062890D01*
X0055421Y0062845D01*
X0055399Y0062801D01*
X0055373Y0062759D01*
X0055343Y0062719D01*
X0055311Y0062681D01*
X0055275Y0062647D01*
X0055237Y0062615D01*
X0055197Y0062587D01*
X0055155Y0062561D01*
X0055110Y0062539D01*
X0055064Y0062521D01*
X0055017Y0062507D01*
X0054969Y0062496D01*
X0054920Y0062489D01*
X0054870Y0062486D01*
X0054821Y0062487D01*
X0054772Y0062492D01*
X0054723Y0062501D01*
X0054675Y0062513D01*
X0054629Y0062530D01*
X0054583Y0062550D01*
X0054540Y0062574D01*
X0054498Y0062600D01*
X0054459Y0062631D01*
X0054423Y0062664D01*
X0054389Y0062700D01*
X0054358Y0062738D01*
X0054330Y0062779D01*
X0054305Y0062822D01*
X0054285Y0062867D01*
X0054267Y0062913D01*
X0054254Y0062961D01*
X0054244Y0063009D01*
X0054238Y0063059D01*
X0054236Y0063108D01*
X0057024Y0067636D02*
X0059386Y0065274D01*
X0058250Y0069250D02*
X0058252Y0069294D01*
X0058258Y0069338D01*
X0058268Y0069381D01*
X0058281Y0069423D01*
X0058298Y0069464D01*
X0058319Y0069503D01*
X0058343Y0069540D01*
X0058370Y0069575D01*
X0058400Y0069607D01*
X0058433Y0069637D01*
X0058469Y0069663D01*
X0058506Y0069687D01*
X0058546Y0069706D01*
X0058587Y0069723D01*
X0058630Y0069735D01*
X0058673Y0069744D01*
X0058717Y0069749D01*
X0058761Y0069750D01*
X0058805Y0069747D01*
X0058849Y0069740D01*
X0058892Y0069729D01*
X0058934Y0069715D01*
X0058974Y0069697D01*
X0059013Y0069675D01*
X0059049Y0069651D01*
X0059083Y0069623D01*
X0059115Y0069592D01*
X0059144Y0069558D01*
X0059170Y0069522D01*
X0059192Y0069484D01*
X0059211Y0069444D01*
X0059226Y0069402D01*
X0059238Y0069360D01*
X0059246Y0069316D01*
X0059250Y0069272D01*
X0059250Y0069228D01*
X0059246Y0069184D01*
X0059238Y0069140D01*
X0059226Y0069098D01*
X0059211Y0069056D01*
X0059192Y0069016D01*
X0059170Y0068978D01*
X0059144Y0068942D01*
X0059115Y0068908D01*
X0059083Y0068877D01*
X0059049Y0068849D01*
X0059013Y0068825D01*
X0058974Y0068803D01*
X0058934Y0068785D01*
X0058892Y0068771D01*
X0058849Y0068760D01*
X0058805Y0068753D01*
X0058761Y0068750D01*
X0058717Y0068751D01*
X0058673Y0068756D01*
X0058630Y0068765D01*
X0058587Y0068777D01*
X0058546Y0068794D01*
X0058506Y0068813D01*
X0058469Y0068837D01*
X0058433Y0068863D01*
X0058400Y0068893D01*
X0058370Y0068925D01*
X0058343Y0068960D01*
X0058319Y0068997D01*
X0058298Y0069036D01*
X0058281Y0069077D01*
X0058268Y0069119D01*
X0058258Y0069162D01*
X0058252Y0069206D01*
X0058250Y0069250D01*
X0059386Y0043226D02*
X0057024Y0040864D01*
X0034976Y0040864D02*
X0032614Y0043226D01*
D12*
X0050250Y0029250D02*
X0050250Y0026750D01*
X0050250Y0029250D02*
X0053750Y0032750D01*
X0056750Y0030750D02*
X0059750Y0033750D01*
X0056750Y0030750D02*
X0056750Y0027750D01*
X0067447Y0054841D02*
X0071187Y0054841D01*
X0071187Y0058974D01*
X0067447Y0058974D01*
X0067447Y0054841D01*
X0072250Y0066250D02*
X0073250Y0067250D01*
X0073250Y0074750D01*
X0067750Y0072750D02*
X0064250Y0072750D01*
X0062250Y0074750D01*
D13*
X0046000Y0054250D03*
D14*
X0065850Y0068750D03*
M02*
