G75*
%MOIN*%
%OFA0B0*%
%FSLAX25Y25*%
%IPPOS*%
%LPD*%
%AMOC8*
5,1,8,0,0,1.08239X$1,22.5*
%
%ADD10C,0.01200*%
%ADD11R,0.00787X0.01969*%
%ADD12R,0.02559X0.00787*%
D10*
X0009250Y0085250D02*
X0009250Y0086750D01*
X0010750Y0088250D01*
X0012250Y0088250D01*
X0009250Y0085250D01*
D11*
X0013553Y0085128D03*
X0013553Y0076628D03*
X0013553Y0068128D03*
X0013553Y0059628D03*
X0013553Y0051128D03*
X0013553Y0042628D03*
X0013553Y0034128D03*
X0013553Y0025628D03*
X0022053Y0025628D03*
X0022053Y0034128D03*
X0022053Y0042628D03*
X0022053Y0051128D03*
X0022053Y0059628D03*
X0022053Y0068128D03*
X0022053Y0076628D03*
X0022053Y0085128D03*
X0030553Y0085128D03*
X0030553Y0076628D03*
X0030553Y0068128D03*
X0030553Y0059628D03*
X0030553Y0051128D03*
X0030553Y0042628D03*
X0030553Y0034128D03*
X0030553Y0025628D03*
X0039053Y0025628D03*
X0039053Y0034128D03*
X0039053Y0042628D03*
X0039053Y0051128D03*
X0039053Y0059628D03*
X0039053Y0068128D03*
X0039053Y0076628D03*
X0039053Y0085128D03*
X0047553Y0085128D03*
X0047553Y0076628D03*
X0047553Y0068128D03*
X0047553Y0059628D03*
X0047553Y0051128D03*
X0047553Y0042628D03*
X0047553Y0034128D03*
X0047553Y0025628D03*
X0056053Y0025628D03*
X0056053Y0034128D03*
X0056053Y0042628D03*
X0056053Y0051128D03*
X0056053Y0059628D03*
X0056053Y0068128D03*
X0056053Y0076628D03*
X0056053Y0085128D03*
X0064553Y0085128D03*
X0064553Y0076628D03*
X0064553Y0068128D03*
X0064553Y0059628D03*
X0064553Y0051128D03*
X0064553Y0042628D03*
X0064553Y0034128D03*
X0064553Y0025628D03*
X0073053Y0025628D03*
X0073053Y0034128D03*
X0073053Y0042628D03*
X0073053Y0051128D03*
X0073053Y0059628D03*
X0073053Y0068128D03*
X0073053Y0076628D03*
X0073053Y0085128D03*
D12*
X0012667Y0024447D03*
X0012667Y0032947D03*
X0012667Y0041447D03*
X0012667Y0049947D03*
X0012667Y0058447D03*
X0012667Y0066947D03*
X0012667Y0075447D03*
X0012667Y0083947D03*
X0021167Y0083947D03*
X0021167Y0075447D03*
X0021167Y0066947D03*
X0021167Y0058447D03*
X0021167Y0049947D03*
X0021167Y0041447D03*
X0021167Y0032947D03*
X0021167Y0024447D03*
X0029667Y0024447D03*
X0029667Y0032947D03*
X0029667Y0041447D03*
X0029667Y0049947D03*
X0029667Y0058447D03*
X0029667Y0066947D03*
X0029667Y0075447D03*
X0029667Y0083947D03*
X0038167Y0083947D03*
X0038167Y0075447D03*
X0038167Y0066947D03*
X0038167Y0058447D03*
X0038167Y0049947D03*
X0038167Y0041447D03*
X0038167Y0032947D03*
X0038167Y0024447D03*
X0046667Y0024447D03*
X0046667Y0032947D03*
X0046667Y0041447D03*
X0046667Y0049947D03*
X0046667Y0058447D03*
X0046667Y0066947D03*
X0046667Y0075447D03*
X0046667Y0083947D03*
X0055167Y0083947D03*
X0055167Y0075447D03*
X0055167Y0066947D03*
X0055167Y0058447D03*
X0055167Y0049947D03*
X0055167Y0041447D03*
X0055167Y0032947D03*
X0055167Y0024447D03*
X0063667Y0024447D03*
X0063667Y0032947D03*
X0063667Y0041447D03*
X0063667Y0049947D03*
X0063667Y0058447D03*
X0063667Y0066947D03*
X0063667Y0075447D03*
X0063667Y0083947D03*
X0072167Y0083947D03*
X0072167Y0075447D03*
X0072167Y0066947D03*
X0072167Y0058447D03*
X0072167Y0049947D03*
X0072167Y0041447D03*
X0072167Y0032947D03*
X0072167Y0024447D03*
M02*
