%
M48
M72
T01C0.0100
%
T01
X1800Y2260
X1795Y2595
X1550Y2825
X1775Y2925
X2025Y2850
X2375Y2825
X2715Y2775
X2975Y2825
X3200Y2875
X3525Y2550
X3525Y2275
X3750Y2875
X4350Y2275
X4625Y2875
X5225Y2850
X5475Y2850
X5825Y2875
X6060Y2875
X6295Y2875
X6625Y2825
X6925Y2515
X6925Y2275
X7150Y2875
X7495Y2875
X6915Y3445
X7125Y3725
X7495Y3725
X7495Y4575
X7255Y4575
X7030Y4525
X6595Y4545
X6245Y4540
X5525Y4525
X5015Y4550
X4780Y4550
X4545Y4550
X4100Y4550
X3750Y4575
X3475Y3875
X3650Y3725
X2900Y3725
X2650Y4225
X2800Y4575
X2050Y4575
X1825Y4825
X1545Y4525
X1205Y4575
X1205Y3725
X1545Y3675
X1775Y3675
X2120Y3695
X2375Y3675
X2650Y3125
X2625Y2255
X1205Y2875
X1545Y5375
X1205Y5425
X1545Y6225
X1205Y6275
X1545Y7075
X1205Y7125
X1205Y7975
X1545Y7925
X2050Y7975
X1775Y8525
X2625Y8525
X2875Y7975
X2900Y7100
X2400Y7100
X2025Y7100
X2400Y6250
X2010Y6225
X2000Y5425
X2335Y5395
X2765Y5435
X2995Y5375
X3700Y5400
X3950Y5400
X4375Y5625
X4525Y5400
X4760Y5400
X4995Y5405
X5440Y5425
X6275Y5405
X6250Y6250
X6920Y6845
X7155Y7075
X7495Y7125
X7495Y7975
X7265Y7975
X7035Y7925
X6875Y8525
X6315Y7965
X5985Y8015
X5495Y7925
X5160Y8000
X4575Y7975
X4475Y7130
X4705Y7075
X5350Y7125
X5995Y7155
X6345Y7100
X7155Y6275
X7495Y6275
X7495Y5425
X7155Y5425
X6645Y3695
X6275Y3700
X5710Y3700
X5450Y3700
X5050Y3725
X4695Y3680
X4470Y3735
X5200Y2275
X6075Y2275
X4705Y6225
X4480Y6285
X3750Y6275
X3725Y7100
X3725Y7975
X2900Y6225
X5425Y6275
M30
